<?xml version="1.0" encoding="utf-8"?>
<svg xmlns="http://www.w3.org/2000/svg" 
xmlns:xlink="http://www.w3.org/1999/xlink">
<symbol id="rocket" viewBox="254.8 74.5 388.9 397.7">
   <path class="st0" fill="#58595b" d="M636.9,119.6c-1.3-4.3-3.8-8.3-4.3-12.6C631,93.6,622,87.3,610.7,83.7c-8-2.6-16.5-3.8-24.7-5.7
		c-23.4-5.6-46.4-4.1-69.6,2.2c-10.8,2.9-20.9,7.3-30.4,12.5c-7.8,4.2-14.4,10.8-20.9,16.9c-7.5,7-15,14.3-21.5,22.2
		c-10.7,12.9-21,26.2-30.7,39.8c-2.9,4.1-5.8,4.4-9.6,3.4c-3.2-0.8-6.3-2-9.6-2.9c-8.2-2.1-16.3-4.8-24.6-6
		c-22.4-3.2-44.2-1.6-64.2,10.2c-4.8,2.8-9.4,6.3-13.2,10.3c-4.3,4.5-8,9.9-11.4,15.2c-3.2,4.9-5.7,10.3-8.4,15.5
		c-5.2,9.9-8.3,20.4-9.9,31.5c-1.8,13.3-5,26.5-7.1,39.8c-1,6.6,3.6,10.7,10.5,10.3c20.3-1.2,40.6-2.4,60.8-3.6
		c3.6-0.2,7.2-0.7,10.8-1.1c0.3,0.6,0.6,1.2,0.8,1.8c-1.9,1.3-3.7,2.9-5.7,3.8c-2.9,1.2-6.2,1.5-9.1,2.7
		c-6.3,2.6-13.9,2.9-15.6,12.2c-1.3,7,0,13.6,3.9,18.3c6.8,8.3,15.4,15.2,23.1,22.8c4.6,4.6,8.9,9.6,13.6,14.1s9.8,8.5,14.6,12.9
		c1.9,1.8,3.3,4.1,5.2,5.9c4.8,4.5,9.9,8.5,14.5,13.2c6.4,6.6,12.1,13.6,20.9,17.4c6.7,2.9,19.7,1.7,22.3-9.2
		c1.5-6.3,2.9-12.5,4.2-18.8c0.6-2.7,1.2-5.5,4.9-4.9c3.8,0.6,2.1,3.5,2,5.6c-0.9,23.8-1.8,47.6-2.6,71.4c-0.2,5.4,4.4,9.5,9.7,8.8
		c6.4-0.9,12.8-2.2,19.1-3.7c11.6-2.8,23.1-5.7,34.5-8.9c4.1-1.1,8.1-2.9,12-4.8c7.1-3.5,14.7-6.5,20.9-11.2
		c8.2-6.3,15.3-13.8,21-22.9c10.3-16.2,13.3-33.9,12.4-52.4c-0.8-17.2-6-33.6-12.3-49.5c-2.1-5.3-0.9-8.4,3.2-11.5
		c6.7-5.1,13.4-10.3,19.8-15.7c5.1-4.3,9.8-9.1,14.8-13.6c4.7-4.3,9.8-8.2,14.2-12.8c4.3-4.4,7.7-9.7,12-14.2
		c9.6-10,14.9-22.3,20.3-34.7c4.8-11.1,6-22.8,7.2-34.5C645,160.7,643,139.9,636.9,119.6z M336.7,277.8c-15.4,1.4-30.9,2.6-47.4,3.9
		c-3,0.2-7.2,0.3-11.3,0.8c-4.3,0.5-5.8-1.2-5.5-5.3c1.1-13.1,4.3-25.7,8-38.4c2.5-8.4,5.7-16.2,9.8-23.9
		c4.5-8.6,10.5-15.5,18.4-21.4c15.8-11.7,33.5-14.9,52.1-12.8c11.4,1.3,22.5,5.3,33.8,8.3c3.6,0.9,4.3,2.8,1.9,6.2
		c-5,7.1-9.5,14.5-14.4,21.7c-5,7.4-10.2,14.5-15.2,21.9c-4,6-7.8,12.1-11.8,18.1c-4.2,6.3-8.5,12.6-13.1,18.6
		C340.9,276.9,338.6,277.7,336.7,277.8z M412.9,395.8c-0.4,1.3-1,2.5-1.4,3.7c-1.6,5.2-3.6,5.7-7.5,1.9c-8.9-8.5-17.9-17-26.6-25.7
		c-7.7-7.6-15-15.5-22.7-23c-4.2-4.1-9-7.6-13.2-11.6c-6-5.7-11.8-11.7-17.5-17.8c-0.6-0.6-0.2-2.9,0.5-3.8c1-1.2,2.6-2.3,4.1-2.8
		c8.2-2.7,16.2-6.2,24.6-7.4c3.4-0.5,8.1,3.6,11.3,6.6c9.1,8.4,17.6,17.4,26.4,26c8.7,8.4,17.6,16.7,26.3,25.1
		c1.3,1.3,2,3.3,2.8,4.7C417.5,380.2,415.2,388,412.9,395.8z M438.6,365.8c-4.5-4.1-8.5-8.6-12.9-12.8c-5.2-5.1-10.5-10.2-15.9-15.2
		c-5.2-4.8-10.6-9.3-15.6-14.2c-5.2-5-10.1-10.3-15.2-15.4c-6.9-6.8-13.8-13.7-21.1-20.2c-2.4-2.2-2.7-4.3-1.2-6.5
		c2-2.9,4.4-5.5,7-8.7c3.6,2.9,6.8,5,9.5,7.6c5.1,4.9,9.8,10.1,14.8,15c4.7,4.7,9.6,9.3,14.5,13.8c5.5,5.2,11.3,10.1,16.7,15.3
		c8.5,8.1,16.8,16.4,25.3,24.6c2.9,2.8,6,5.2,8.8,8.1c1.1,1.1,2.5,3.6,2.1,4c-3.1,3.2-6.2,6.7-10,8.8
		C444.3,370.6,440.7,367.7,438.6,365.8z M540.4,407.1c-3.4,5.8-6.6,11.9-11.1,16.7c-4.2,4.5-9.8,7.8-15.1,11
		c-8.7,5.2-17.8,9.4-27.9,11.4c-9.9,1.9-19.5,5.3-29.3,7.4c-6.8,1.4-7.7,0-7.4-6.9c0.7-18,1.5-35.9,1.7-53.9
		c0.1-6.6,3.7-10.2,8.6-13.4c1-0.6,2-1.2,2.9-1.9c9.4-7.1,18.8-14.2,28.3-21.3c12.4-9.3,24.8-18.4,37.1-27.7c2.3-1.8,3.4-5.7,7.5-4
		c1.1,0.5,2.5,1.3,2.8,2.3c3.1,10.6,6.2,21.3,8.8,32.1c1.2,4.8,1.2,9.9,1.7,14.8C549,385.5,546.5,396.8,540.4,407.1z M617.1,219.9
		c-4.7,9-9.8,17.9-17,25.2c-9.3,9.4-18.8,18.6-28.5,27.6c-8,7.4-16.2,14.5-24.7,21.3c-6.7,5.5-14,10.3-20.9,15.5
		c-5.4,4.1-10.4,8.5-15.8,12.6c-7.1,5.3-14.5,10.2-21.5,15.5c-4.9,3.6-9.5,7.5-14.1,11.5c-2.8,2.4-5.9,2-8.4-0.7
		c-4.7-5.1-9.7-9.8-14.6-14.6c-4.5-4.4-9.2-8.7-13.8-13.2c-4.6-4.5-9.1-9.1-13.8-13.5c-9.3-8.8-18.6-17.5-27.9-26.2
		c-6.3-5.9-12.6-11.8-19-17.7c-3.7-3.4-4-6-1.3-10c6.2-8.9,12.1-18,18.4-26.9c8-11.4,16.4-22.6,24.4-34c4.9-7,9.2-14.3,14.2-21.3
		c3.9-5.4,8.4-10.5,12.6-15.7c3.5-4.3,6.6-9,10.3-13.1c8.2-9,16.2-18.4,25.2-26.5c7.9-7.1,16.8-12.9,27.5-15.9
		c8.1-2.2,7.7-2.9,13.7,2.9c13.7,13.3,27.6,26.4,41.3,39.7c7.6,7.4,14.9,15.2,22.6,22.7c4.2,4.1,9,7.6,13.2,11.7
		c5,4.9,9.7,10.1,14.5,15.2c1,1,2.6,1.5,3.6,2.6c2.3,2.5,4.3,5.3,6.5,8C621.4,209.3,619.8,214.8,617.1,219.9z M628.2,172.3
		c-0.1,1.5-0.1,3.1-0.6,4.4c-0.4,1.1-1.4,2.2-2.4,2.8c-0.4,0.2-1.7-1.1-2.4-1.8c-4.4-4.1-8.9-8.2-13.2-12.4
		c-5.1-5.1-9.9-10.4-15.1-15.5c-4.3-4.2-8.9-8-13.4-12c-0.6-0.5-1.5-0.9-2-1.4c-4.3-4.6-8.4-9.5-13-14c-4.6-4.4-9.7-8.3-14.3-12.7
		c-5.2-4.9-10-10.2-14.9-15.3c0.1-0.5,0.3-1.1,0.4-1.6c2-0.4,4-1.2,6.1-1.2c12.8,0.2,25.7-0.1,38.4,1.3c7.9,0.9,15.5,4.4,23.3,6.8
		c0.5,0.1,0.9,0.6,1.4,0.6c7.5-0.2,9.7,5.8,11.6,11C625,131,629,151.3,628.2,172.3z"/>
	<path class="st0" fill="#58595b" d="M511.8,172.2c-21,0-38.2,14.5-38.7,38.3c-0.5,22.1,18.6,39.7,38.1,39c18.3,1.7,38-18.8,38.5-36.8
		C550.2,189.4,531.7,172.2,511.8,172.2z M510.8,233.3c-13-0.3-22.4-10.7-22.2-22.9c-0.2-12.2,11.5-22.9,23-22.5
		c12.8,0.5,22.3,11,22.3,23.6C533.9,223.8,523.3,233.6,510.8,233.3z"/>
	<path class="st0" fill="#58595b" d="M454.3,232.3c-19.8-0.8-39.3,16.7-39,38.6c-0.3,22,16.3,38.5,37.1,39c23.4,0.5,39.5-17.2,39.8-38
		C492.4,249.4,475.8,233.2,454.3,232.3z M475.7,271.7c0,12-10.8,23.4-22.3,23.1c-10.9-0.2-23.4-11.9-23.1-23.5
		c0.3-12.1,10.9-21.6,23.6-22.3C465.6,248.3,477.4,259.9,475.7,271.7z"/>
</symbol>
<symbol id="money" viewBox="0 0 137.7 139.4">
    <path fill="#58595b" d="M137,93c-1.6-4.2-6.1-6.7-11.3-5.8c-2,0.3-3.8,0.7-5.2-1.3c-2.8-3.9-6.7-4.1-11-3c-2.2,0.6-4.3,1.7-6.6,0
		c-2.9-2.1-6-1.5-9.2-0.4c-7.4,2.7-14,6.8-20.8,10.6c-3.4,1.9-6.2,1.7-9.4,0.2c-7.8-3.6-14.1-9.4-21.1-14.3c-4.5-3.2-9.2-4.4-14.6-3
		c-8.6,2.2-16.6,6.2-24.8,9.5c-2.1,0.9-4,2.2-2.8,4.8c1.2,2.7,3.4,1.9,5.5,1.1c5.4-2.2,10.9-4.2,16.3-6.6c7.2-3.2,13.9-3.6,20.2,2.2
		c11.7,10.7,25.2,17,41.5,15.8c1.3-0.1,3.3-0.3,3.7,1.4c0.4,1.7-1.6,2.1-2.8,2.7c-9.9,4.5-19.9,4.8-29.9,0.7c-3.3-1.3-6.4-3-9.7-4.4
		c-2-0.9-4.4-1.4-5.7,0.9c-1.4,2.5,0.7,3.9,2.5,5c1.7,1,3.5,1.7,5.2,2.6c13.5,6.6,27.2,7.2,41.1,1c7-3.1,8.9-9.4,4.3-14.4
		c-2.2-2.3-5.1-2-8-3.9c3.6-1.8,7.2-3.6,10.8-5.3c1.4-0.7,3.2-1.3,4.1,0.8c1.9,4.6,4.6,4.1,7.9,1.4c1.1-0.9,2.5-1.5,3.8-1.9
		c2.5-0.8,4-0.3,4.2,2.8c0.4,5.6,1.8,6.2,6.9,3.4c0.9-0.5,1.8-1.2,2.8-1.5c1.9-0.7,4.1-1.2,5.3,0.8c1.5,2.5-1.2,3.3-2.7,4.3
		c-14.8,9.4-29.6,18.9-44.5,28.2c-8.2,5-16.9,7-26.5,4c-5.6-1.8-11.2-3.3-16.8-5c-8.5-2.7-17.2-4.1-26.2-3.2c-2.4,0.2-5.1,0.7-5,3.6
		c0.1,3.1,2.8,3.2,5.2,2.9c6.8-0.8,13.4,0,20,2c6.6,2,13.3,3.9,19.9,5.9c9.6,2.9,19.1,2.8,27.9-2c17.5-9.5,33.8-20.8,50.5-31.4
		C137.3,100.8,138.7,97.2,137,93z"/>
	<path fill="#58595b" d="M68.3,77.1c21.5,0,39.3-17.8,38.5-38.4C107.8,16.8,88.5,0.1,69.7,0c-22-0.2-39.3,16.4-39.4,38C30.1,59.4,47,77.1,68.3,77.1
		z M68.8,6.9c16-0.7,31.6,12.9,31.7,31.8c0.1,17.3-14.6,31.7-32,31.7c-17.2,0-32.1-14.9-31.8-32C36.9,21.1,51.1,6.1,68.8,6.9z"/>
	<path fill="#58595b" d="M59.8,40.1c2.8,1.2,5.8,1.7,8.8,1.9c1.6,0.1,3.2,0.2,4.8,0.5c2.1,0.4,3.7,1.4,3.8,3.8c0.1,2.2-1.7,3-3.3,3.6
		c-3.2,1.2-6.3,0.6-9.4-0.3c-1.9-0.5-3.7-1.1-5.1-1.5c-2.5,0-4.3,0.4-4.5,2.7c-0.2,2.5,1.7,3.7,3.6,4c4.5,0.8,7.7,2.3,7.2,7.7
		c-0.2,1.6,1.2,2.6,2.7,2.8c1.6,0.1,3.1-0.7,3-2.3c-0.4-5.2,3.3-6.1,7-7.8c7.6-3.4,8.1-12.3,1.2-17c-2.7-1.8-5.7-2.9-9-2.9
		c-1.9,0-3.9,0.1-5.8-0.3c-2.2-0.5-5-1.5-4.9-4.1c0.1-2.8,2.8-3.8,5.4-4.2c3.8-0.5,7.4,0.4,10.9,1.8c2.5,1,5.1,1.6,6.1-1.7
		c0.9-3-1.5-3.9-3.9-4.5c-4.1-1-7.4-2.5-6.9-7.6c0.1-1.5-0.8-2.8-2.5-3c-1.9-0.2-3.4,1.1-3.3,2.8c0.3,4.6-2.4,6-6.1,7.2
		c-4.2,1.4-6.7,4.8-6.7,9.3C53,35.4,55.7,38.3,59.8,40.1z"/>
</symbol>
<symbol id="partner" viewBox="0 0 212.4 192.2">
    <path fill="#58595b" d="M77.2,175.3c-10.2-1.5-16.9-7-18.9-17.4c-3.7-1.1-7.8-1.7-11.2-3.5c-4.2-2.3-7.6-5.8-8.2-11.3c-0.3-3.2-2.1-5-5.7-5.7
	c-13.3-2.7-18.6-17-10.5-27.9c0.8-1,1.6-2,2.7-3.3c-4-4.3-7.7-8.4-11.5-12.3C-0.6,79.3-3.3,62.2,3.7,43.5
	C11.3,23.3,25.8,9.2,46.3,2.8c17.9-5.6,35.1-2.9,49.4,10.8c1.9,1.8,3.9,3.6,6.2,5.8c2.2-2,4.2-3.8,6.1-5.6
	c11.1-11,24.5-14.7,39.8-13.5c28,2.1,44.5,19.5,57.6,42c3.5,6,5.2,12.4,6.4,19c2.7,16-2.5,29.6-14,40.9c-3.2,3.2-6.4,6.3-9.3,9.3
	c0.7,2.4,1.5,4.2,1.7,6c1.7,11.1,0.3,17.5-11.4,22.7c-2,0.9-4.1,2.7-5,4.6c-4.7,10.4-7.3,12.5-19.6,14.5
	c-2.3,5.7-4.6,11.7-11.5,14.2c-6.6,2.4-12.6,0.3-18.1-2c-5.6,5.6-10.7,10.9-16,15.9c-8.3,7.8-19,6.9-25.7-2.2
	C80.6,182.4,79.3,179.1,77.2,175.3z M94.9,26.6C82,7.9,62.6,5,44.8,12.4c-15.6,6.5-27,18.2-33.2,34.2c-3.7,9.5-4.1,19.7-0.1,29.2
	c4.1,9.8,12.2,16.6,20.8,24c2.9-2.9,5.5-5.6,8.1-8.1c6.2-5.9,13.5-7.2,20.7-2.8c3.6,2.2,6.2,6.1,9.9,9.9c7.7-5.6,16.2-6.6,24,1.1
	c6.2,6.2,7.1,13.6,3.7,20.3c4.1,3.9,8,7.1,11.2,10.8c4,4.6,2,10.2,1.6,14.2c4.3,4.5,8,8.3,11.7,12c2.5,2.4,5,5,7.9,6.8
	c1.8,1.1,4.6,1.4,6.6,0.8c5.7-1.9,7.2-7.9,3.1-13.2c-3.8-4.9-8.2-9.3-12.4-13.8c-3.1-3.3-6.2-6.7-9.5-9.7c-2.2-2-2.6-4.3-0.9-6.4
	c2.2-2.6,4.7-2,6.9,0.4c0.9,1,1.9,1.9,2.8,2.8c5.4,5.5,10.8,11.1,16.3,16.6c2.1,2.1,4.2,4.2,6.7,5.7c4.4,2.7,10.6,1.5,13.1-2.1
	c2.3-3.3,1.9-5.9-2.4-10.5c-7-7.4-14.1-14.7-21.2-22c-1.3-1.4-3-2.7-3.5-4.3c-0.5-1.5-0.2-4,0.8-5c0.9-0.8,3.7-0.9,4.8,0
	c3,2.2,5.6,4.9,8.2,7.5c6.4,6.4,12.6,13,19.1,19.3c4.1,3.9,7.4,3.2,10.5-1.5c3.3-5,2.9-8.2-2.2-13.6C166.8,102.9,155.4,91,144,79
	c-5.2-5.5-10.4-11.1-15.9-17c2-2.1,3.4-3.6,5.3-5.6c2.7,2.4,5.2,4.3,7.4,6.6c6.9,7.2,13.5,14.6,20.5,21.8
	c6.6,6.8,13.5,13.4,21.3,21.2c3.6-4.1,6.9-7.9,10.3-11.7c10.3-11.2,14.2-23.9,8.7-38.6c-2-5.2-4-10.7-7.1-15.2
	c-10.1-14.9-22.2-27.5-41-31.1c-15.2-2.9-28.8-0.3-40.1,11C103.1,31,92.7,41.4,82.3,51.8c-2.4,2.4-4.7,4.8-7.1,7.2
	c6.7,5.8,12.1,7,18.2,3.5c4.3-2.5,8.8-5.5,11.8-9.3c7.1-9,16.2-9.6,26.1-8c3.2,0.5,6.1,2,9.3,2.8c2.8,0.7,5.7,1.2,8.6,1.7
	c5.8,0.9,10.3-2.2,15.1-4.7c4.4-2.4,4.5-2.2,8.2,3.3c-2,1.8-3.8,4.2-6.2,5.6c-8.1,4.6-16.7,5.6-25.8,3.1c-4.6-1.3-9.3-2.4-14-3.7
	c-4.9-1.4-9-0.1-12.6,3.4c-2.9,2.8-5.7,5.7-8.6,8.3c-8.9,8.1-20.5,9.7-31.4,4.5c-8.3-3.9-9.9-11.6-3.7-18.4c2-2.2,4.3-4,6.3-6.1
	C82.8,38.9,88.9,32.7,94.9,26.6z M81.4,103.5c-0.4,0.2-2.4,0.9-3.8,2.2c-9.4,9-18.7,18.1-27.8,27.3c-3.8,3.9-3.6,9.6,0,13
	c3.2,3.1,8.6,3,12.4-0.7c9.2-9.1,18.3-18.5,27.4-27.7c2.2-2.2,4-4.9,2-7.8C89.6,106.8,87.8,103,81.4,103.5z M103.1,140.6
	c0.1-5.1-1.4-7.8-5-9.7c-3.9-2.1-7-0.6-9.5,1.8c-6.2,5.9-12.2,12-18,18.2c-3.9,4.1-3.7,8.7,0.4,12.6c4.2,4,7.1,4,11.7-0.4
	c6-5.7,11.8-11.5,17.5-17.5C101.7,144,102.5,141.6,103.1,140.6z M62.7,103.6c-2.1-2.5-3.7-5.4-6-7.2c-2.8-2.1-6.2-1.8-8.9,0.8
	c-6.1,5.9-12.2,11.7-18.1,17.9c-2.3,2.4-3.2,5.5-1.4,8.9c3,6,9.4,7.2,14.7,2.3c5.2-4.9,10.3-10,15.1-15.2
	C59.9,109.3,60.9,106.7,62.7,103.6z M117.3,164.1c-1.9-2.1-3.2-3.7-4.7-5.2c-3.6-3.8-6.8-4.6-10.5-1.5c-4.7,4-9,8.5-13.1,13.1
	c-2.1,2.3-1.6,7.7,0.2,9.8c2.9,3.4,7.7,5,10.8,2.5C106.8,177.6,113.3,172.1,117.3,164.1z"/>
</symbol>
<symbol id="consultant" viewBox="0 0 174 173.3">
    <path fill="#58595b" d="M152.4,49.9c-3.5-1-5.1-2.9-6.1-6.1c-1.3-4-2.7-7.9-4.7-11.6C134.4,18.3,123,8.5,108.4,3.6C91.8-1.9,74.8-1.4,58.8,7.1
		C44.4,14.8,34,26.1,29.4,42c-1.4,4.8-3.9,7.5-8.7,8.6C10.6,52.9,5,60.7,1.8,69.4c-6.7,18.1,6.4,36.7,22.1,40.3
		c6.9,1.6,9.5-0.3,9.5-7.4c0-13.1,0-26.2,0-39.3c0-2.4,0.2-4.8,0.3-7.1C49,51.8,59.8,42.4,69,30.5c21.2,16.2,43.6,19.5,67.9,9
		c3.2,5.4,4.9,11.2,4.8,17.5c-0.1,14.9-0.2,29.8,0.1,44.6c0.2,8.4-1,16.3-4.3,24c-6.6,15.5-17.5,25.7-34.3,28
		c-2.7-2.8-5-5.5-7.6-7.8c-4.2-3.8-13.1-4.3-19.3,2.2c-5,5.2-4.5,14.8-0.8,19.6c5.4,6.9,18.2,9,24.7-1.6c2.7-4.4,5.9-5.7,10.2-6.9
		c9.1-2.5,17-6.9,23.2-14.2c7.5-8.8,12-18.9,14.2-30.1c0.6-2.9,1.6-4.7,4.7-5.5c5-1.3,9.3-4,12.8-7.8C181,84.6,174.6,56,152.4,49.9z
		 M25.9,103c-12.7-3.7-18-13-18.5-23.2C7,70.6,15.1,60.1,25.6,56.1C26.4,71.7,25.8,87,25.9,103z M131.3,34.2
		c-21.1,8.4-40.2,5-57.6-9.4c-1-0.8-2.1-1.6-3-2.5c-2.5-2.3-4.1-1.2-5.9,1.1c-3.6,4.7-7,9.6-11.3,13.6c-4,3.7-8.9,6.4-13.5,9.4
		c-1.1,0.7-2.8,0.5-5.1,0.9c6.5-21.8,20.7-34.7,41.5-39.2c20.7-4.4,43,2.5,57.1,24.1C132.9,32.9,132.2,33.9,131.3,34.2z M87.5,166.7
		c-4.1,0.1-8.3-4.5-8.2-8.7c0.1-4.4,3.6-7.5,8.2-7.3c4.4,0.1,8,3.6,7.9,7.8C95.5,162.2,91.2,166.6,87.5,166.7z M149.6,103
		c0-15.7,0-30.8,0-46.1c10,2.1,16.5,9.6,17.3,20.8C167.6,87.5,163.2,98.3,149.6,103z"/>
	<path fill="#58595b" d="M97.7,118.9c7-2.4,12-7.2,15.1-14.1c1.1-2.4-0.2-4-1.9-5c-2-1.2-3.3,0.4-4.4,1.8c-0.4,0.5-0.6,1.2-0.8,1.8
		c-5.1,11.6-25.2,14.4-35,2.7c-1.2-1.5-1.7-3.6-2.9-5.1c-0.7-0.8-2.6-1.6-3.3-1.3c-1.2,0.6-2.4,2.2-2.5,3.4
		c-0.1,1.4,0.8,2.9,1.5,4.2c5.2,9.3,13.7,12.7,24.8,13.2C90.8,120.2,94.4,120.1,97.7,118.9z"/>
	<path fill="#58595b" d="M67.3,78.9c3.6,0.1,7-3.3,7-7.3c0.1-4-3.1-7.3-7-7.2c-3.6,0.1-6.7,3.1-6.8,6.8C60.3,74.9,63.8,78.8,67.3,78.9z"/>
	<path fill="#58595b" d="M107.6,78.9c3.7-0.1,6.8-3.6,6.8-7.6c-0.1-3.7-3-6.7-6.6-6.9c-3.8-0.1-7.2,3.2-7.2,7.1C100.6,75.3,104.1,79,107.6,78.9z"/>
</symbol>
<symbol id="garant" viewBox="0 0 134.8 138.7">
    <path fill="#58595b" d="M90.8,48.4c9,0,17.2-0.2,25.3,0c9.1,0.2,15,7.6,13.1,16.2c-0.4,1.9-1.3,3.8-1.9,5.7c10.7,6.8,10.2,21.2-2.6,26.5
	c1.8,3.9,2.5,8,1.1,12.3c-1.3,4.2-4.5,6.7-8.5,8.4c0.4,2,1,3.8,1.2,5.6c0.9,8.3-4.6,14.6-12.9,14.8c-11.2,0.3-22.4,0.8-33.6,0.7
	c-13.7,0-26.7-3.6-37.9-11.6c-5-3.5-10.2-5.1-16-5.8c-4.4-0.5-8.9-1-13.4-1.1c-3.3-0.1-4.8-1.4-4.8-4.7c0-16.4,0-32.8,0-49.3
	c0-3.1,1.4-4.9,4.2-5.8c5.7-1.8,11.3-3.8,17-5.5c12.5-3.8,24.8-8,35.5-15.9c8.7-6.5,15.9-14,18.8-24.9c0.9-3.2,2.3-6.3,3.5-9.4
	c1.3-3.5,3.8-4.8,7.4-4.7c6.7,0.1,13,5.3,14.1,12.1c1.5,9,1.3,17.8-4,25.9C94.5,41,92.9,44.4,90.8,48.4z M82.1,71.9
	c-0.8-0.4-1.1-0.5-1.1-0.5c-1,1.3-2,2.5-2.8,3.9c-4.4,7.4-10.6,12.4-19.1,14.4c-1.8,0.4-4,0.7-4.6-1.8c-0.6-2.2,0.7-3.4,2.9-3.9
	c12.2-3.2,17.4-12.5,20.3-23.7c0.5-2,0.8-4.1,1.8-5.8c3.6-6.3,7.1-12.7,11.2-18.6c4.5-6.5,4.8-13.6,4.1-20.9C94.4,9.4,91.7,7,85,6.1
	c-1.5,3.8-3.3,7.7-4.4,11.8c-2.5,9-8,16-15.1,21.6c-5.7,4.5-11.6,8.8-18.1,12c-7.8,3.8-16.3,6.3-24.5,9.2
	c-5.4,1.9-10.9,3.5-16.2,5.2c0,16.5,0,32.2,0,48.1c4.4,0.5,8.4,0.9,12.5,1.5c6.3,0.8,12.1,2.3,17.6,6.1c5.9,4,12.9,6.6,19.7,9
	c6.9,2.4,14.2,2.4,21.5,1.5c-2-7.3-2-13.7,4.3-18.7c-3.6-6.6-3.7-12.8,1.2-18.9C75.5,87.4,77,79.7,82.1,71.9z M106.3,76
	c-5,0-10.1-0.1-15.1,0c-4.6,0.2-7.1,2.7-7.3,6.8c-0.2,4.2,2.6,7.5,7.1,7.6c10.2,0.2,20.5,0.3,30.7,0c4.8-0.1,6.9-3,6.7-7.8
	c-0.2-4.4-2.2-6.5-7.2-6.6C116.4,75.8,111.3,76,106.3,76z M103.9,54.6c-4.5,0-8.9-0.2-13.4,0.1c-4.8,0.3-6.8,2.8-6.7,7.8
	c0,3.9,2.3,6.4,6.8,6.5c8.5,0.2,17.1,0.2,25.6,0c5-0.2,7.1-2.7,7-7.4c-0.1-4.4-2.2-6.6-7-6.8C112.1,54.4,108,54.6,103.9,54.6z
	 M102.5,111.4c0,0.1,0,0.2,0,0.4c3.7,0,7.5,0.2,11.2-0.1c4.2-0.3,6.9-3.5,6.8-7.4c-0.1-4.2-2.6-6.8-7.1-6.9
	c-6.9-0.1-13.8-0.1-20.7,0c-4.9,0.1-6.8,2.2-6.9,6.8c0,4.8,1.8,6.9,6.6,7.1C95.8,111.6,99.2,111.4,102.5,111.4z M97.3,117.8
	C97.3,117.7,97.3,117.7,97.3,117.8c-2.4-0.1-4.8-0.1-7.2-0.1c-4.8,0.1-7.3,2.5-7.3,7c0,4.5,2.5,7.2,7.2,7.3c5.4,0.1,10.8,0,16.1-0.2
	c3.9-0.2,6.4-3,6.4-7c0-4-2.3-6.8-6.3-7C103.2,117.6,100.3,117.8,97.3,117.8z"/>
</symbol>
<symbol id="point" viewBox="0 0 289.8 464.4">
    <path class="st0" fill="#FB0808" d="M45.1,249.9c1.4,1.4,2.7,2.8,3.7,4.6c15.6,30.3,31.3,60.5,47.1,90.7c13.2,25.4,26.4,50.7,39.6,76.1
		c0.2,0.4,0.5,0.9,0.7,1.3c1.5,3.4,3.6,6.2,7.7,6c3.8-0.1,5.6-2.9,7.2-6c29.3-55.2,58.6-110.4,88-165.5c1.4-2.7,3.1-5,5.3-7.1
		c29.9-28.7,44.7-63.9,45.5-104.4C289.2,106.1,276.3,72,249,44.3c-36.5-37-81.1-51-132.3-41.4C44.9,16.3-8.1,84.1,1,162
		C5.1,196.5,20.1,225.8,45.1,249.9z M145.5,47.5c53.4,0.1,96.6,43.8,96.6,97.7c0.4,54.4-45.7,97.9-98.7,97.1
		c-52.8-0.8-95.9-44.1-95.9-98C47.6,90.6,91.3,47.4,145.5,47.5z"/>
	<path class="st0" fill="#FB0808" d="M256.3,367.8c-7.6-6.8-16.4-11.9-25.7-16.1c-6.5-2.9-13-5.6-20.1-7.3c-4.4,7.6-8.6,14.9-13,22.6
		c5.4,1.8,10.1,3.2,14.8,5c7.5,2.8,14.7,6.3,20.6,12c8.4,8.1,8.4,17.1,0.2,25.3c-5.4,5.4-12.1,8.8-19.1,11.6
		c-15.4,6.2-31.6,9.2-48,10.6c-28.7,2.5-57.2,0.9-85-7.5c-9.3-2.8-18.1-6.6-25.7-12.9c-10.2-8.6-10.4-18.7-0.7-27.6
		c4.5-4.1,9.8-6.9,15.2-9.4c6-2.7,12.3-4.4,18.8-6.7c-4.6-7.8-8.9-15.2-13.3-22.6c-18.2,6-35,13.5-48.3,27.1
		c-16.7,17.1-16.8,38.2-0.3,55.5c9.9,10.5,22.1,17.6,35.5,22.6c47.1,17.9,95.1,18.9,143.6,6.5c18.2-4.6,35.3-12,49.7-24.4
		C278.4,412.5,278.6,387.8,256.3,367.8z"/>
	<path class="st0" fill="#FB0808" d="M102.6,162.9c-1.9,10.5-3.8,20.9-5.6,31.4c-1.2,6.8-2.2,13.6-3.4,20.9c1.3-0.6,1.9-0.8,2.5-1.1
		c14.9-7.8,29.7-15.5,44.5-23.5c3.1-1.7,5.6-1.7,8.7,0.1c5.4,3.2,11.1,6,16.7,8.9c9.8,5.1,19.6,10.3,29.4,15.4
		c0.8-1.5,0.4-2.7,0.2-3.8c-2.8-16.2-5.5-32.4-8.4-48.7c-0.4-2.4-0.8-4.3,1.3-6.3c7.3-6.8,14.4-13.8,21.5-20.8
		c5.7-5.7,11.3-11.5,17.2-17.5c-1.1-0.3-1.8-0.6-2.6-0.7c-16.6-2.4-33.2-4.9-49.9-7.1c-3.3-0.4-4.8-1.9-6.1-4.7
		c-7.6-15.8-15.5-31.5-23.4-47.5c-1.5,1.4-2,3-2.7,4.4c-7.2,14.6-14.5,29.2-21.6,43.8c-1,2-2,3.6-4.6,3.8c-7.4,0.8-14.8,2-22.2,3.1
		c-10.3,1.5-20.7,3.1-32,4.8c1.8,1.9,2.9,3.1,4.1,4.3c11.3,11,22.6,22.1,34.1,33C102.6,157.4,103.2,159.7,102.6,162.9z"/>
</symbol>
<symbol id="phone_footer" viewBox="0 0 166.9 142.5">
    <path class="st0" fill="#ffffff" d="M160.3,21.8c-4.6-3.7-9.6-7.1-15-9.5C125.8,3.5,104.8,1,81.9,0c-4.7,0.4-11.1,1-17.4,1.6
		C50.6,3,37.1,5.9,24.2,11c-6.8,2.7-13.3,6-18.3,11.5C1.4,27.2-1,32.6,0.4,39.3c0.9,4.5,1.2,9.2,1.8,13.7C2.9,58.7,6,64,14.4,62.8
		c9.1-1.3,18.3-2.5,27.4-4.1c5.5-0.9,8.6-5.7,7.6-11.2c-0.4-2.2-0.6-4.4-1.2-6.5c-2.5-8.5,0.4-7.6,5.8-9.6c0.8-0.3,1.7-0.3,2.6-0.5
		c18.3-4.3,36.6-4,54.9,0.2c1.9,0.4,3.8,1,5.7,1.7c2,0.8,3.1,2.3,2.5,4.7c-0.7,2.8-1.2,5.6-1.8,8.4c-1.5,7.5,1.5,11.9,9,13
		c1.3,0.2,2.6,0.4,3.9,0.6c7,1.1,13.9,2.3,20.9,3.2c8.2,1,11.6-1.5,13-9.4c0.9-5.2,1.4-10.5,2-15.7
		C167.5,31.2,165.2,25.7,160.3,21.8z M159.7,37.3c-0.8,5.2-1.7,10.4-2.4,15.7c-0.4,2.7-1.8,3.2-4.2,2.8c-8.3-1.3-16.5-2.5-24.8-3.8
		c-3.6-0.6-3.9-0.9-3.3-4.7c0.5-2.8,1.2-5.6,1.6-8.4c1-7-1.2-11.1-8.1-13.1c-6.1-1.8-12.4-3-18.7-4c-15.4-2.4-30.8-1.1-45.9,2.4
		c-0.6,0.1-1.3,0.2-2,0.3c-10.7,2.8-13.3,7-10.9,17.8c0.1,0.4,0.3,0.8,0.4,1.3c1.5,7.2,1.2,7.6-6.1,8.7c-7.2,1.1-14.3,2.3-21.5,3.5
		c-2.5,0.4-3.9-0.3-4.2-2.8c-0.8-5.9-1.8-11.8-2.2-17.7c-0.4-4.4,2.7-7.3,5.8-9.9c5.7-4.7,12.4-7.7,19.3-9.9
		c11.8-3.7,23.8-6.3,36.2-7.1c5.1-0.4,10.1-1,14.5-1.4c21.2,1.6,41.6,3.6,60.5,12.4c4.5,2.1,8.5,5.4,12.5,8.5
		C159,30.1,160.3,33.5,159.7,37.3z"/>
	<path class="st0" fill="#ffffff" d="M139.2,70.8c-0.8-2.5-1.4-5.5-4.9-5.2c-2.5,0.2-3.2,3.1-1.9,7.3c2.1,6.9,4,14,6.6,20.7
		c3.6,9.3,4,18.9,3.6,28.6c-0.3,8.1-5.4,12.9-13.6,13.1c-2.4,0.1-4.9,0-7.3,0c-27.6,0-55.2-0.2-82.8,0.1c-9.8,0.1-14.5-7-14.6-14.3
		c-0.1-9.8,0.6-19.3,4.2-28.5c2.3-5.9,4-12.1,6-18.2c0.4-1.3,0.8-2.5,1.3-3.7c1-2.4-0.1-4-2-4.9c-2.4-1.2-3.6,0.7-4.6,2.5
		c-0.4,0.8-0.6,1.7-0.9,2.5c-2.9,8.8-5.9,17.5-8.8,26.3c-2.6,7.9-3,16-2.6,24.2c0.7,13.2,10.1,21.7,22.1,21.2
		c14.8-0.7,29.6-0.2,44.4-0.2c15.7,0,31.3,0.1,47,0c9.2-0.1,17.7-6.6,18.7-15.5c0.8-8,1.1-16.5-0.4-24.4
		C146.6,91.7,142.5,81.3,139.2,70.8z"/>
	<path class="st0" fill="#ffffff" d="M59.8,98.2c4.6,0,7-2.3,7.1-6.8c0.1-4.8-1.8-6.6-6.8-6.7c-5.2-0.1-7.3,1.7-7.5,6.1
		C52.4,95.6,55,98.3,59.8,98.2z"/>
	<path class="st0" fill="#ffffff" d="M76.3,114.2c0,4.6,2.2,6.8,6.8,6.8c5,0.1,7.6-2.3,7.5-6.9c0-4.8-2.2-6.7-7.6-6.6
		C78.2,107.6,76.3,109.5,76.3,114.2z"/>
	<path class="st0" fill="#ffffff" d="M59.6,75.1c5.1,0.1,7.3-1.7,7.4-6.3c0.1-4.8-2.4-7.4-7.3-7.3c-4.6,0-7,2.4-7.1,6.9
		C52.5,72.9,54.7,75,59.6,75.1z"/>
	<path class="st0" fill="#ffffff" d="M83.3,75.1c5.1,0.1,7.3-1.8,7.4-6.3c0.1-4.8-2.5-7.3-7.3-7.3c-4.6,0-7,2.3-7,6.9C76.3,73,78.3,75,83.3,75.1z"
		/>
	<path class="st0" fill="#ffffff" d="M83.3,98.3c4.8,0.1,7.5-2.6,7.4-7.2c-0.1-4.5-2.2-6.3-7.4-6.3c-5.1,0-7,1.8-7,6.6
		C76.4,95.8,78.7,98.2,83.3,98.3z"/>
	<path class="st0" fill="#ffffff" d="M59.8,107.5c-5.1,0-7.1,1.7-7.2,6.2c-0.1,4.7,2.4,7.2,7.2,7.3c4.9,0,7.3-2.4,7.2-7.2
		C66.9,109.4,64.8,107.5,59.8,107.5z"/>
	<path class="st0" fill="#ffffff" d="M107.3,98.3c4.7,0,6.6-1.9,6.6-6.9c0-5.3-1.3-6.5-6.6-6.6c-5.4,0-7,1.4-7.1,6.3
		C100.1,96.1,102.2,98.3,107.3,98.3z"/>
	<path class="st0" fill="#ffffff" d="M107.1,121c5,0,6.7-1.7,6.8-6.7c0.1-5.5-1.1-6.7-6.3-6.8c-5.6-0.1-7.4,1.6-7.4,6.7
		C100.2,118.9,102.3,121,107.1,121z"/>
	<path class="st0" fill="#ffffff" d="M107.3,75.1c5.3,0,6.6-1.3,6.6-6.6c0-5-1.8-6.9-6.5-7c-5,0-7.3,2.2-7.1,7.2C100.3,73.6,101.9,75.1,107.3,75.1z
		"/>
</symbol>
<symbol id="mail" viewBox="0 0 168.8 163.9">
    <path fill="#ffffff" d="M84,163.9c-25.4,0-50.8,0-76.2,0c-7.5,0-7.7-0.3-7.7-7.6C0.1,126.1,0.2,96,0,65.8c0-4.3,1.3-6.9,4.8-9.5
	C29.4,38.6,53.9,20.6,78.3,2.5c4.3-3.2,7.4-3.4,11.9-0.1c24.3,18.2,48.8,36.1,73.4,53.8c3.7,2.7,5.2,5.5,5.2,10.1
	c-0.2,29.7-0.1,59.4-0.1,89.1c0,7.9-0.5,8.4-8.5,8.4C134.7,163.9,109.3,163.9,84,163.9z M8.7,62.4c19.5,14.7,38,28.7,56.5,42.8
	c5.4-4.4,10.2-8.1,14.8-12.1c3-2.6,5.4-2.5,8.3,0c4.8,4.1,9.7,8,14.8,12.2c18.9-14.4,37.4-28.4,56.6-42.9c-1.3-0.8-1.8-1.2-2.4-1.6
	c-23.2-17-46.4-34-69.5-51.2c-3-2.2-5-1.6-7.7,0.4c-11.4,8.6-23,16.9-34.5,25.4C33.6,44.1,21.6,53,8.7,62.4z M14.3,156.1
	c47.3,0,92.8,0,139.9,0c-24-19.7-46.9-38.4-69.9-57.3C61.1,117.8,38.2,136.5,14.3,156.1z M161.1,70.2
	c-17.8,13.5-34.8,26.4-52.3,39.6c17.6,14.4,34.5,28.3,52.3,42.8C161.1,124.9,161.1,98.3,161.1,70.2z M7.2,70.2c0,28,0,54.6,0,82.6
	c17.9-14.6,34.9-28.5,52.4-42.9C42,96.5,25.1,83.7,7.2,70.2z"/>
</symbol>
<symbol id="mitten" viewBox="0 0 458.4 512">
	<path class="st0" fill="#ffffff" d="M446.5,235.5c19-24.3,14.7-59.5-9.5-78.6c-11.7-9.2-26.4-13.3-41.2-11.4c-6.8,0.8-13.2,2.8-19.1,5.9
	C365.4,66,292.1,0,203.8,0C107.6,0,29.4,78.3,29.4,174.4v191.5C13,367.2,0,381,0,397.8V480c0,17.6,14.3,32,32,32h343.7
	c17.6,0,32-14.3,32-32v-82.2c0-16.8-13-30.6-29.5-31.9l-0.4-43.2c4.2-4.7,8.4-10.1,11.3-13.9L446.5,235.5z M386.3,397.8V480
	c0,5.9-4.8,10.7-10.7,10.7H31.9c-5.9,0-10.7-4.8-10.7-10.7v-82.2c0-5.9,4.8-10.7,10.7-10.7h38.6v58.5c0,5.9,4.8,10.7,10.7,10.7
	c5.9,0,10.7-4.8,10.7-10.6v-58.5h14.7v39.5c0,5.9,4.8,10.7,10.7,10.7c5.9,0,10.7-4.8,10.7-10.6v-39.5h239.7h0.1h8
	C381.5,387.1,386.3,391.9,386.3,397.8z M372.2,295.7c-3.2,4.1-8.4,10.9-12.7,15.2c-0.5,0.5-1,1.1-1.4,1.7c0,0,0,0,0,0.1
	c-0.2,0.3-0.3,0.5-0.5,0.8c-0.1,0.1-0.1,0.2-0.2,0.3c-0.1,0.2-0.2,0.4-0.3,0.6c-0.1,0.1-0.1,0.3-0.2,0.4c-0.1,0.2-0.1,0.4-0.2,0.5
	c-0.1,0.2-0.1,0.4-0.2,0.7c0,0.1-0.1,0.2-0.1,0.3c-0.1,0.7-0.2,1.4-0.2,2.1l0.4,47.2H50.5V174.2C50.7,90,119.4,21.3,203.8,21.3
	c82.5,0,149.9,65.6,153,147.3l-54.2,69.2c-3.6,4.6-2.8,11.3,1.8,15c4.6,3.6,11.3,2.8,15-1.8l55.9-71.4c0.7-0.9,1.5-1.8,2.2-2.6h0.7
	v-0.7c5.4-5.3,12.4-8.7,20.1-9.7c9.3-1.1,18.3,1.4,25.5,7.1c15,11.8,17.7,33.6,5.9,48.6L372.2,295.7z"/>
</symbol>
<symbol id="cream" viewBox="-276 20 240 512">
	<path class="st0" fill="#ffffff" d="M-38.4,22.9c-1.7-1.8-4.1-2.9-6.6-2.9h-222.1c-2.5,0-4.9,1-6.6,2.9c-1.7,1.8-2.5,4.3-2.4,6.8l10.4,135.4
	c0.4,4.9,4.7,8.6,9.6,8.2c4.9-0.4,8.6-4.7,8.2-9.6l-6.6-86.4H-109c4.9,0,8.9-4,8.9-8.9s-4-8.9-8.9-8.9h-146.8l-1.7-21.5h202.8
	l-1.7,21.5h-24.2c-4.9,0-8.9,4-8.9,8.9s4,8.9,8.9,8.9h22.8L-79.2,359h-28.6c-4.9,0-8.9,4-8.9,8.9s4,8.9,8.9,8.9H-80
	c-1.4,16.1-15,28.8-31.4,28.8h-89.2c-16.5,0-30-12.7-31.4-28.8h96.3c4.9,0,8.9-4,8.9-8.9s-4-8.9-8.9-8.9h-97l-11.7-152.1
	c-0.4-4.9-4.7-8.6-9.6-8.2c-4.9,0.4-8.6,4.7-8.2,9.6l12.3,165.8c0,24.3,17.7,44.6,40.9,48.7l14.1,101.5c0.6,4.4,4.4,7.7,8.8,7.7
	h60.4c4.5,0,8.2-3.3,8.8-7.7l14.1-101.5c23.2-4.1,40.9-24.3,40.9-48.7l26-344.5C-35.8,27.1-36.7,24.7-38.4,22.9z M-133.6,514.1
	h-44.8l-12.6-90.6h70L-133.6,514.1z"/>
</symbol>
<symbol id="helmet" viewBox="-223 66.2 512 429.6">
	<path class="st0" fill="#ffffff" d="M264.3,337.8V321c0-53.2-18.5-105.1-52.1-146.2c-12-14.7-25.8-27.8-40.9-39.1v-1.8c0-4.9-4-8.8-8.8-8.8
	c-1.7,0-3.3,0.5-4.6,1.3c-21.2-13.6-44.5-23.7-68.9-29.8V75c0-4.9-4-8.8-8.8-8.8h-94.2c-4.9,0-8.8,4-8.8,8.8v21.5
	c-24.5,6.1-47.8,16.2-69,29.8c-1.3-0.8-2.9-1.3-4.6-1.3c-4.9,0-8.8,4-8.8,8.8v1.8c-15.1,11.3-28.9,24.4-40.9,39.1
	c-33.6,41.1-52.1,93-52.1,146.2v16.8c-14.2,3.4-24.7,16.2-24.7,31.4c0,17.8,14.5,32.4,32.4,32.4h27.4c4,19.7,21.1,39.2,48.4,54.7
	c29.2,16.6,65.8,26.2,103.8,27.5v3.1c0,4.9,4,8.8,8.8,8.8h70.6c4.9,0,8.8-4,8.8-8.8v-3.1c38-1.3,74.5-11,103.8-27.5
	c27.2-15.5,44.4-35,48.4-54.7h27.4c17.8,0,32.4-14.5,32.4-32.4C289,354.1,278.4,341.3,264.3,337.8z M-5.3,83.9h76.5v167.7
	c0,5.9-15.3,14.7-38.3,14.7s-38.3-8.9-38.3-14.7L-5.3,83.9L-5.3,83.9z M-180.6,321c0-63.9,28.9-122.9,75.3-162.6v116.7
	c0,4.9,4,8.8,8.8,8.8c4.9,0,8.8-4,8.8-8.8V144.9c19.4-13.4,41.2-23.7,64.7-30.1v136.8c0,18.5,24,32.4,55.9,32.4s55.9-13.9,55.9-32.4
	V114.8c23.5,6.4,45.3,16.7,64.7,30.1v130.3c0,4.9,4,8.8,8.8,8.8s8.8-4,8.8-8.8V158.4c46.4,39.7,75.3,98.7,75.3,162.6v15.8
	c-45.8-0.7-72.2-6-100.1-11.5c-29.4-5.9-59.7-11.9-113.5-11.9s-84.2,6.1-113.5,11.9c-27.9,5.6-54.3,10.9-100.1,11.5L-180.6,321
	L-180.6,321z M-11.1,466.2c-34.6-1.3-68.8-10.3-95-25.2c-20.6-11.7-34.5-25.9-38.8-39.3h18.1c4.7,10.8,17.9,21.4,37.8,30.1
	c22.6,9.9,50,15.8,78,16.8V466.2z M-11.1,428.1v2.7c-25.4-1-50.8-6.5-70.9-15.3c-11.2-4.9-18.5-9.8-23-13.9H6.5v17.7h-8.8
	C-7.2,419.3-11.1,423.3-11.1,428.1z M59.5,478.1h-53V437h53V478.1z M24.2,419.3v-17.7h17.7v17.7H24.2z M68.3,419.3h-8.8v-17.7H171
	c-4.5,4.1-11.9,9.1-23,13.9c-20.1,8.8-45.5,14.2-70.9,15.3v-2.7C77.1,423.3,73.2,419.3,68.3,419.3z M172.2,441
	c-26.2,14.9-60.4,23.9-95,25.2v-17.6c28-1,55.4-6.9,78-16.8c19.8-8.7,33-19.3,37.8-30.1H211C206.7,415.1,192.8,429.2,172.2,441z
	 M256.6,384h-447.3c-8.1,0-14.7-6.6-14.7-14.7s6.6-14.7,14.7-14.7c0.4,0,0.7,0,1.1,0c0,0,0.1,0,0.1,0c0,0,0.1,0,0.1,0
	c53-0.1,83.2-6.1,112.3-11.9c29.8-6,58-11.6,110.1-11.6s80.3,5.6,110.1,11.6c29.1,5.8,59.2,11.8,112.3,11.9c0,0,0.1,0,0.1,0
	c0,0,0.1,0,0.1,0c0.4,0,0.7,0,1.1,0c8.1,0,14.7,6.6,14.7,14.7C271.3,377.4,264.7,384,256.6,384z"/>
</symbol>
<symbol id="arrow" viewBox="0 0 190.7 78.6" >
	<path class="st0" fill="#ffffff" d="M189.2,2.1L189.2,2.1c-2.3-2.5-6.3-2.8-9-0.7L95.4,65.8L10.5,1.4c-2.7-2.1-6.7-1.7-9,0.7s-1.9,6.1,0.8,8.2
	l88.3,67.1c1.4,1.1,3.1,1.5,4.8,1.3c1.7,0.2,3.4-0.3,4.8-1.3l88.3-67.1C191.1,8.2,191.5,4.5,189.2,2.1z"/>
</symbol>
<symbol id="arrow_sidebar" viewBox="0 0 84 176">
	<polygon class="st0" fill="#33CC33" points="36,176 0,176 48,88 0,0 36,0 84,88 "/>
</symbol>
<symbol id="logo" viewBox="0 0 110.8 86">
	<path class="st0" fill="#ffffff" width="100%" height="100%" d="M110.7,39c-0.2-1.1-0.7-1.8-1.4-2.2c-1.3-0.6-3.1,0.2-5,1.2c-0.7,0.3-1.4,0.7-2,0.9c-0.1,0.1-0.3,0.1-0.4,0.1
		c0.2-0.2,0.5-0.3,0.7-0.5c0,0,3.2-2,5-3.2c2.3-1.6,2.9-3.3,3-4.5c0.1-1.5-0.5-2.8-1.1-3.4l-0.1-0.1c-1-1.1-2.3-1.6-7.9,2.8
		c-0.8,0.6-1.3,1-1.8,1.3c0.3-0.4,0.6-0.8,1-1.2c0,0,2.8-3,4.5-5c1.2-1.4,1.9-3.5,1.8-5.2c-0.1-1.2-0.5-2.1-1.2-2.7
		c-0.5-0.4-1.1-0.6-1.7-0.5c-1.7,0.2-3.9,2.1-6.8,5.8c-0.3,0.4-0.6,0.8-0.9,1.1c0.6-0.9,1.1-1.7,1.5-2.3c0.4-0.6,0.8-1.2,1-1.5
		c1.2-1.9,1.4-4.4,0.5-5.7c-0.4-0.5-1.2-1.3-3-0.9c-3.5,0.8-6.6,6.3-9,10.7l-0.2,0.3c-0.4,0.8-1.5,2.7-2.1,3.5c0-0.2,0.1-0.5,0.1-1
		c0.6-3.5-0.7-8.1-2.5-9.2c-1.6-1-4.3-0.8-5.6,0.4c-0.6,0.6-1.4,1.8-0.3,3.9c1.7,3.1,0.4,10.9,0.4,11c0,0.3-0.1,0.6-0.2,0.9
		c-1.4-2.4-2.6-5.9-2.9-7c0-0.2-0.1-0.5-0.3-0.9c-0.4-1.3-0.9-3.4-0.9-4.7c0-0.1-0.2-7.6,1.7-10.4c1.4-1.9,0.7-3.2,0.2-3.8
		c-1.1-1.3-3.6-1.9-5.3-1.1c-1.9,0.8-3.7,5-3.5,8.4c0,0.4,0,0.7,0,0.9c-0.5-0.9-1.2-2.8-1.5-3.6l-0.1-0.3c-1.8-4.5-3.9-10-7.2-11.3
		c-1.6-0.6-2.5,0-2.9,0.5c-1,1.1-1.1,3.5-0.2,5.4c0.2,0.4,0.4,0.9,0.7,1.6c0.3,0.6,0.7,1.5,1.1,2.4c-0.2-0.4-0.4-0.8-0.7-1.2
		c-2.2-3.9-4.1-6-5.7-6.4c-0.6-0.1-1.2-0.1-1.7,0.3c-0.8,0.5-1.3,1.3-1.5,2.4c-0.3,1.7,0.1,3.8,1,5.2c1.4,2.1,3.6,5.3,3.7,5.3
		c0.3,0.4,0.5,0.8,0.8,1.2c-0.4-0.3-0.8-0.8-1.5-1.5c-4.8-4.9-6.1-4.5-7.2-3.6l-0.1,0.1c-0.6,0.5-1.4,1.6-1.4,3
		c0,1.1,0.3,2.8,2.3,4.6c1.5,1.4,4.3,3.6,4.3,3.7c0.2,0.2,0.5,0.4,0.6,0.6c-0.1-0.1-0.2-0.1-0.3-0.2c-0.6-0.3-1.2-0.8-1.8-1.1
		c-1.7-1.1-3.2-2.2-4.6-1.7c-0.7,0.2-1.2,0.8-1.6,1.9c-1,2.8,1.4,4.7,5,7.5c1.7,1.3,3.6,2.8,5.6,4.7c3.7,3.5,8.9,12.6,9.8,14.2
		c0.4,0.8,0.7,3.4,0.9,5.2c-0.5,0.4-1,1-1.3,1.7c-0.4,1-0.3,2,0.2,3.1c1.2,2.4,2.6,4.4,4.1,6.1c0.4-0.1,0.7-0.1,1.1-0.1c0,0,0,0,0,0
		c-1.7-1.7-3.2-3.8-4.5-6.4c-0.4-0.8-0.5-1.6-0.2-2.3c0.1-0.3,0.3-0.6,0.5-0.9c0,0.2,0.1,1.6,1.2,2.7c0.7,0.7,1.8,1,3,1
		c0.5,0,1,0,1.5-0.1c2.7-0.4,11.8-2.3,17.6-11.1c0.6-0.9,0.8-1.9,0.6-2.9c-0.5-1.8-2.3-3-2.8-3.2c-0.3-0.3-0.5-0.6-0.7-0.9
		c-1-1.4-1.6-2.2-4.1-4.9c-0.2-0.2-0.4-0.5-0.7-0.8c0.1-0.2,0.1-0.4,0.1-0.5c0-0.1,2.8,3,4.6,5.4c1.8,2.4,2.7,1.9,3.9,4.6
		c2,4.2-8.2,11.2-9.8,12.2c-0.1,0.1-3.1,1.5-1.6,2.8c1.2,1,1.8,0,4.4,0.7c2.9,0.7,5.4,3.6,5.3,3.7c0.3,0,0.6,0,0.9,0.1
		c0.1-0.3,0.2-0.5,0.3-0.6c1.1-1.6,7.8-10.3,12.1-13.4c2.4-1.7,4.5-2.9,6.4-4.1C108.6,43.6,111.3,42.1,110.7,39z M79.4,38.7
		c2,1.2,2.8,3.2,3,3.5c-0.3,0.9-2.1,5.5-9.3,8.7l0.3,0.8c7-3.1,9.1-7.4,9.7-8.9c0.6,0.4,1.7,1.3,2,2.5c0.2,0.7,0,1.5-0.5,2.2
		c-5.6,8.5-14.4,10.3-17,10.7c-1.7,0.2-3,0-3.9-0.7c-0.9-0.8-0.9-2-0.9-2l0,0c0-0.6-0.8-7.4-1.5-8.6c0-3.4,5-3.1,8-3.3
		C76.9,43.2,76.5,37,79.4,38.7z"/>
	<path class="st0" fill="#ffffff" d="M0.4,57.1h1.8c0.3,0,0.4-0.1,0.4-0.4l1.8-12.4h5.2L7.8,56.7c0,0.3,0.1,0.4,0.4,0.4h1.8c0.3,0,0.4-0.1,0.4-0.4
		l2-13.8c0-0.3-0.1-0.4-0.3-0.4H2.4c-0.3,0-0.4,0.1-0.5,0.4L0,56.7C0,56.9,0.1,57.1,0.4,57.1z"/>
	<path class="st0" fill="#ffffff" d="M13,48.2L13,48.2c0.3,0,0.5,0.3,0.4,1.2l-1.6,11.7c0,0.3,0.1,0.4,0.4,0.4h1.6c0.3,0,0.4-0.1,0.4-0.4l0.8-5.3h0
		c0.4,0.8,1.2,1.5,2.9,1.5c2.4,0,4.6-1.3,5.2-5.6c0.6-4.2-1.2-5.5-3.5-5.5c-1.5,0-2.9,0.6-3.9,1.9h0c0-1-0.6-1.7-2.3-1.7h-0.1
		c-0.3,0-0.4,0.1-0.5,0.4l-0.1,0.9C12.6,48.1,12.7,48.2,13,48.2z M15.5,51.7c0.4-2.7,1.5-3.8,3.4-3.8c1.5,0,2.2,0.7,1.8,3.8
		c-0.4,3.2-1.4,3.9-2.8,3.9C16,55.6,15.2,54.5,15.5,51.7z"/>
	<path class="st0" fill="#ffffff" d="M30.4,46.2c-3.9,0-5.3,2.5-5.7,5.6c-0.4,3,0.2,5.5,4.2,5.5s5.3-2.5,5.7-5.5C35,48.8,34.3,46.2,30.4,46.2z
		 M32.1,51.8c-0.3,2-1,3.7-3,3.7c-2,0-2.2-1.7-2-3.7c0.3-2,1-3.7,3-3.7C32.2,48,32.4,49.8,32.1,51.8z"/>
	<path class="st0" fill="#ffffff" d="M52.1,51.7c0.6-4.2-1.1-5.5-3.2-5.5c-1.5,0-2.4,0.7-2.9,1.5h0l0.8-5.3c0-0.3-0.1-0.4-0.3-0.4h-1.6
		c-0.3,0-0.4,0.1-0.5,0.4l-0.8,5.3h0c-0.3-0.8-1-1.5-2.5-1.5c-2.1,0-4.2,1.3-4.7,5.5c-0.6,4.2,1.1,5.6,3.2,5.6
		c1.5,0,2.4-0.7,2.9-1.5h0l-0.8,5.3c0,0.3,0.1,0.4,0.4,0.4h1.6c0.3,0,0.4-0.1,0.4-0.4l0.8-5.3h0c0.3,0.8,1,1.5,2.5,1.5
		C49.5,57.3,51.5,56,52.1,51.7z M42.9,51.7c-0.4,2.8-1.4,3.9-3,3.9c-1.2,0-1.8-0.7-1.3-3.9c0.4-3.1,1.2-3.8,2.4-3.8
		C42.6,47.9,43.3,49,42.9,51.7z M45.4,51.7c0.4-2.7,1.4-3.8,3-3.8c1.2,0,1.8,0.7,1.3,3.8c-0.4,3.2-1.2,3.9-2.4,3.9
		C45.8,55.6,45,54.5,45.4,51.7z"/>
	<path class="st0" fill="#ffffff" d="M12,66.8H2.4C2.1,66.8,2,67,2,67.2L0,81.1c0,0.3,0.1,0.4,0.4,0.4h1.8c0.3,0,0.4-0.1,0.4-0.4l1.8-12.4h5.2
		L7.8,81.1c0,0.3,0.1,0.4,0.4,0.4h1.8c0.3,0,0.4-0.1,0.4-0.4l2-13.8C12.4,67,12.3,66.8,12,66.8z"/>
	<path class="st0" fill="#ffffff" d="M18.2,70.6c-3.3,0-4.9,2.5-5.3,5.7c-0.4,2.9,0.3,5.4,4,5.4c1.7,0,3.3-0.5,3.7-1c0.2-0.2,0.2-0.3,0.1-0.5
		l-0.3-0.7c-0.1-0.1-0.1-0.2-0.5,0C19,79.8,18.2,80,17.4,80c-1.8,0-2.2-1.3-2.2-3h4.2c1.7,0,2.3-0.5,2.5-2
		C22.4,72.1,20.7,70.6,18.2,70.6z M19.5,74.7c-0.1,0.6-0.3,0.7-0.9,0.7h-3.1c0.3-1.6,1.1-3,2.6-3C19.1,72.4,19.7,73.5,19.5,74.7z"/>
	<path class="st0" fill="#ffffff" d="M30.1,70.6c-1.5,0-2.9,0.6-3.9,1.9h0c0-1-0.6-1.7-2.3-1.7h-0.1c-0.3,0-0.4,0.1-0.5,0.4l-0.1,0.9
		c0,0.3,0.1,0.4,0.3,0.4h0c0.3,0,0.5,0.3,0.4,1.2l-1.6,11.7c0,0.3,0.1,0.4,0.4,0.4h1.6c0.3,0,0.4-0.1,0.4-0.4l0.8-5.3h0
		c0.4,0.8,1.2,1.5,2.9,1.5c2.4,0,4.6-1.3,5.2-5.6C34.2,72,32.4,70.6,30.1,70.6z M31.2,76.2c-0.4,3.2-1.4,3.9-2.8,3.9
		c-1.8,0-2.7-1.1-2.3-3.9c0.4-2.7,1.5-3.8,3.4-3.8C30.9,72.4,31.6,73.1,31.2,76.2z"/>
	<path class="st0" fill="#ffffff" d="M44.8,71.3c0-0.3-0.1-0.4-0.3-0.4h-1.6c-0.3,0-0.4,0.1-0.5,0.4l-0.7,4.9c-0.4,0.1-0.9,0.2-1.5,0.2
		c-1.6,0-2.3-1.1-2-3.3l0.3-1.9c0-0.3-0.1-0.4-0.3-0.4h-1.8c-0.3,0-0.4,0.1-0.5,0.4l-0.3,1.9c-0.4,2.8,1.2,5.1,4,5.1
		c0.6,0,1.2-0.1,1.8-0.2l-0.1,0.5c-0.3,2,0.5,3,2.5,3H44c0.3,0,0.4-0.1,0.4-0.4l0.1-0.9c0-0.3-0.1-0.4-0.3-0.4h0
		c-0.3,0-0.5-0.4-0.4-1.4L44.8,71.3z"/>
	<path class="st0" fill="#ffffff" d="M56.6,71.3c0-0.3-0.1-0.4-0.3-0.4h-1.4c-0.3,0-0.4,0.1-0.5,0.4l-0.3,0.9h0c-0.6-1.1-1.6-1.5-3-1.5
		c-2.3,0-4.5,1.3-5.1,5.5c-0.6,4.3,1.2,5.6,3.5,5.6c1.5,0,2.8-0.6,3.9-1.9h0c0,1,0.6,1.7,2.3,1.7h0.1c0.3,0,0.4-0.1,0.4-0.4l0.1-0.9
		c0-0.3-0.1-0.4-0.3-0.4h0c-0.3,0-0.5-0.3-0.4-1.2L56.6,71.3z M53.5,76.2c-0.4,2.7-1.5,3.9-3.4,3.9c-1.5,0-2.2-0.7-1.8-3.9
		c0.4-3.1,1.4-3.8,2.8-3.8C53.1,72.4,53.9,73.5,53.5,76.2z"/>
	<path class="st0" fill="#ffffff" d="M71.8,79.8L71.8,79.8c-0.3,0-0.5-0.4-0.4-1.4l0.5-3.7c0.3-2.5-1.1-4-3.1-4c-1,0-2.1,0.6-2.8,1.7
		c-0.5-1.1-1.5-1.7-2.7-1.7c-1.2,0-1.9,0.6-2.7,1.9h0c0-1-0.6-1.7-2.3-1.7h-0.1c-0.3,0-0.4,0.1-0.5,0.4l-0.1,0.9
		c0,0.3,0.1,0.4,0.3,0.4h0c0.3,0,0.5,0.3,0.4,1.2l-1,7.3c0,0.3,0.1,0.4,0.4,0.4h1.6c0.3,0,0.4-0.1,0.4-0.4l0.8-5.5
		c0.3-2.1,1-3.2,2.2-3.2c1.1,0,1.3,1.4,1,3l-0.8,5.7c0,0.3,0.1,0.4,0.3,0.4h1.7c0.3,0,0.4-0.1,0.4-0.4l0.8-5.7c0.3-2,1-3,2.1-3
		c1.1,0,1.3,1.4,1,3l-0.4,3.2c-0.3,2,0.5,3,2.5,3h0.1c0.3,0,0.4-0.1,0.4-0.4l0.1-0.9C72.2,79.9,72,79.8,71.8,79.8z"/>
	<path class="st0" fill="#ffffff" d="M80.9,70.9c-0.3,0-0.5,0.1-0.7,0.3l-4,4.3l0.6-4.2c0-0.3-0.1-0.4-0.3-0.4h-1.6c-0.3,0-0.4,0.1-0.5,0.4L73,81.1
		c0,0.3,0.1,0.4,0.4,0.4H75c0.3,0,0.4-0.1,0.4-0.4l0.6-4.2l2.7,4.3c0.1,0.2,0.3,0.3,0.6,0.3h2.4c0.3,0,0.3-0.1,0.2-0.3L78.4,76
		l4.7-4.8c0.2-0.2,0.2-0.3-0.1-0.3H80.9z"/>
	<path class="st0" fill="#ffffff" d="M94.5,71.3c0-0.3-0.1-0.4-0.3-0.4h-1.4c-0.3,0-0.4,0.1-0.5,0.4l-0.3,0.9h0c-0.6-1.1-1.6-1.5-3-1.5
		c-2.3,0-4.5,1.3-5.1,5.5c-0.6,4.3,1.2,5.6,3.5,5.6c1.5,0,2.8-0.6,3.9-1.9h0c0,1,0.6,1.7,2.3,1.7h0.1c0.3,0,0.4-0.1,0.4-0.4l0.1-0.9
		c0-0.3-0.1-0.4-0.3-0.4h0c-0.3,0-0.5-0.3-0.4-1.2L94.5,71.3z M91.4,76.2c-0.4,2.7-1.5,3.9-3.4,3.9c-1.5,0-2.2-0.7-1.8-3.9
		c0.4-3.1,1.4-3.8,2.9-3.8C90.9,72.4,91.8,73.5,91.4,76.2z"/>
</symbol>
<symbol id="phone" viewBox="0 0 148.9 152.8">
	<path fill="#ffffff" d="M133,121.7c-0.9-1.3-1.8-2.6-2.7-3.8c-1-1.3-2-2.5-2.9-3.8c-1.5-2-2.9-4-4.4-5.9c-1-1.3-2-2.5-3-3.7
		c-1.8-2.4-3.6-4.9-5.5-7.3c-1.8-2.4-3.8-4.8-5.6-7.2c-1-1.4-2.1-2.7-3.7-3.5c-2.2-1.1-4.5-1.2-6.5,0c-2.3,1.4-4.5,3.2-6.7,4.8
		c-1.8,1.4-3.6,2.8-5.4,4.2c-2.2,1.6-3.3,4.7-2.6,7.3c0.2,0.9,0.1,1.1-0.7,1.5c-1.3,0.7-2.7,1.2-4.1,1.6c-1.7,0.4-3.4,0.5-5.1,0.1
		c-1-0.2-2-0.4-3-0.7c-0.3-0.1-0.7-0.1-1-0.3c-1.4-0.6-2.8-1.3-4.2-2c-2.5-1.1-4.7-2.8-6.9-4.5c-2.7-2.1-5.2-4.5-7.3-7.3
		c-1.1-1.5-2.3-3-3.3-4.6c-1.1-1.7-2.1-3.4-3.1-5.1c-0.6-1-1.1-2.1-1.5-3.2c-0.6-1.7-1-3.5-1.6-5.1c-1-2.4-1-4.8-1-7.3
		c0-0.8,0-1.7,0-2.5c-0.1-2.1,0.8-3.9,1.6-5.7c0.6-1.2,1.6-2.3,2.4-3.4c0.3-0.5,0.8-0.5,1.3-0.2c1.6,1.2,3.5,1,5.3,0.8
		c0.4,0,0.9-0.2,1.2-0.4c1.3-0.9,2.6-1.7,3.8-2.7c1.5-1.1,2.9-2.2,4.4-3.3c1.6-1.3,3.3-2.5,4.8-3.9c1.4-1.3,2.3-2.9,2.3-4.9
		c0.1-1.8-0.5-3.4-1.5-4.8c-1.7-2.3-3.5-4.6-5.2-6.9c-1.8-2.3-3.6-4.6-5.4-7c-1.8-2.4-3.6-4.8-5.4-7.2c-2.4-3.2-4.9-6.4-7.4-9.6
		c-0.5-0.7-1-1.4-1.6-1.9c-1.2-1.1-2.6-1.6-4.2-1.8c-1.5-0.1-3,0-4.3,0.7C32,2.1,30.9,3.1,29.7,4c-2.5,1.9-4.9,3.8-7.4,5.7
		c-2.1,1.6-3.6,3.5-3.8,6.2c-0.1,0.8-0.5,1.2-1.2,1.2c-1.5-0.1-2.6,0.8-3.7,1.6c-2.5,1.8-4.8,3.8-7.2,5.7c-1.8,1.5-3.3,3.3-4.2,5.5
		c-0.7,1.7-1.3,3.5-1.6,5.3c-0.7,3.9-0.7,7.7-0.1,11.6c0.4,2.4,0.5,4.8,1.3,7.2c0.5,1.4,0.5,3,1.2,4.4c0.2,0.4,0.2,0.9,0.3,1.4
		c0.1,0.4,0.1,0.7,0.2,1c0.8,2.2,1.6,4.3,2.4,6.5c0.1,0.2,0.2,0.4,0.3,0.7c0.6,1.4,1.3,2.7,1.9,4.1c0.5,1.2,1,2.5,1.6,3.7
		c0.7,1.5,1.5,3,2.3,4.4c0.5,1,1,1.9,1.5,2.8c0.6,1.1,1.3,2.3,2,3.4c1,1.6,1.9,3.3,2.9,4.9c1.1,1.7,2.2,3.3,3.3,5
		c0.9,1.4,1.8,2.7,2.7,4.1c1.5,2,3,4,4.5,6c2.3,2.9,4.5,5.8,6.9,8.6c2.2,2.6,4.4,5.1,6.8,7.5c3.5,3.5,7.1,7,10.7,10.3
		c2.1,2,4.4,3.8,6.7,5.6c1.2,1,2.6,1.9,3.9,2.8c1.4,1,2.7,1.9,4.2,2.8c1.6,1.1,3.3,2.1,5,3.1c1.5,0.9,3.1,1.6,4.7,2.3
		c1.3,0.6,2.6,1.1,3.9,1.5c0.8,0.3,1.6,0.5,2.4,0.8c0.7,0.2,1.5,0.4,2.2,0.5c1,0.2,2,0.3,3,0.5c3.3,0.7,6.5,0.1,9.6-0.7
		c1.1-0.3,2-0.9,3-1.5c0.9-0.5,1.7-1.2,2.5-1.8c2.2-1.7,4.5-3.4,6.6-5.1c0.8-0.7,1.6-1.5,1.8-2.6c0.1-0.7,0.6-0.9,1.4-0.7
		c0.5,0.1,1.1,0.3,1.6,0.2c2-0.1,3.7-0.9,5.2-2.1c2.5-2,5-3.9,7.5-5.8c1.1-0.8,2.3-1.5,3.2-2.5c0.8-0.9,1.6-2,1.9-3.2
		c0.3-1.2,0.1-2.5,0.1-3.8C133.4,122.4,133.2,122,133,121.7z M26.4,14.5c1.3-0.8,2.4-1.8,3.6-2.7c1.5-1.1,2.9-2.2,4.4-3.4
		c0.3-0.3,0.7-0.6,1-0.8c0.4-0.3,0.9-0.5,1.4-0.7c0.3,0.2,0.7,0.4,0.9,0.6c1.2,1.6,2.5,3.1,3.7,4.7c1,1.3,2,2.6,3,3.9
		c1.9,2.5,3.7,5,5.6,7.4c0.9,1.2,1.9,2.4,2.9,3.7c1.5,2,3.1,4.1,4.6,6.1c0.9,1.2,1.8,2.3,2.7,3.5c0.5,0.7,1.1,1.4,1.6,2.1
		c0.4,0.6,0.4,1-0.3,1.5c-1.5,1.2-3,2.3-4.5,3.4c-2,1.5-4,3.1-5.9,4.6c-0.8,0.6-1.6,0.5-2.2-0.3c-1.8-2.4-3.5-4.7-5.3-7.1
		c-2.2-2.8-4.4-5.6-6.5-8.4c-1.9-2.5-3.8-5-5.6-7.4c-1.9-2.4-3.7-4.9-5.7-7.3C24.6,16.5,24.7,15.6,26.4,14.5z M108.3,137.3
		c-1.3,1-2.5,2-3.8,2.9c-2.4,1.8-4.7,3.7-7.3,5.3c-1.1,0.7-2.7,0.9-4,0.9c-2.3,0-4.6-0.2-6.8-0.6c-1.7-0.3-3.4-1.2-5-1.9
		c-1-0.4-2-0.9-3-1.4c-3-1.3-5.7-3-8.4-4.8c-3.4-2.2-6.5-4.7-9.6-7.2c-5.4-4.3-10.2-9.3-15-14.3c-2.7-2.9-5.2-5.9-7.7-9
		c-2-2.4-3.9-4.9-5.8-7.4c-1.5-2-2.8-4-4.2-6.1c-1.1-1.6-2.2-3.1-3.2-4.7c-1-1.6-1.9-3.2-2.8-4.8c-0.5-0.9-1-1.7-1.5-2.6
		c-1-1.8-2.2-3.5-3.1-5.4c-1.1-2.1-2-4.3-3-6.5c-0.6-1.3-1.2-2.6-1.8-3.9c-0.2-0.4-0.3-0.8-0.4-1.2c-0.6-1.6-1.2-3.3-1.9-4.9
		c-0.2-0.4-0.3-0.8-0.5-1.2c-0.3-1.1-0.7-2.1-1-3.2c0-0.1-0.1-0.2-0.1-0.3c-0.3-2.9-1.6-5.5-1.6-8.4c0-1.8-0.3-3.5-0.5-5.4
		C6.5,39.1,6.5,37,7,34.9c0.5-2.1,1.5-4.1,3.3-5.6c2.4-2,4.8-3.8,7.2-5.7c0.7-0.6,1.5-1.1,2.2-1.6c0.6-0.4,1.2-0.3,1.7,0.4
		c1.8,2.4,3.6,4.8,5.4,7.2c1.3,1.7,2.7,3.4,4,5.1c1.5,2,3.1,4.1,4.6,6.1c1.9,2.4,3.7,4.8,5.6,7.1c0.1,0.2,0.3,0.4,0.4,0.6
		c0.8,1.1,0.8,1-0.4,1.7c-0.7,0.5-1.4,1.1-1.9,1.8c-2.4,3.3-4.1,6.9-4,11c0,2.8,0.1,5.7,0.3,8.5c0,0.8,0.3,1.6,0.5,2.3
		c0.2,0.8,0.4,1.6,0.6,2.4c0.2,0.5,0.4,1.1,0.5,1.6c0.2,0.6,0.4,1.2,0.6,1.8c0.2,0.6,0.4,1.1,0.7,1.6c0.1,0.3,0.3,0.5,0.4,0.7
		c0.9,2.4,2.1,4.6,3.5,6.7c1.3,1.9,2.5,3.9,3.9,5.7c1.6,2,3.3,3.8,5.1,5.6c1.6,1.6,3.4,3.1,5.2,4.5c1.6,1.2,3.4,2.3,5.1,3.3
		c1.1,0.7,2.3,1.4,3.6,1.9c1.6,0.7,3.3,1.2,5,1.7c1.8,0.5,3.6,0.8,5.4,1c1.7,0.2,3.4,0.1,5.1-0.5c0.8-0.3,1.8-0.3,2.5-0.7
		c1.2-0.5,2.4-1.2,3.4-1.9c0.9-0.7,1-0.7,1.7,0.1c2.7,3.5,5.4,7,8.1,10.5c2.1,2.7,4.1,5.4,6.2,8.1c1.8,2.3,3.5,4.7,5.3,7.1
		c0.2,0.3,0.5,0.5,0.7,0.7C108.9,136.6,108.8,136.9,108.3,137.3z M126.5,125.6c-1.2,1.1-2.5,2-3.8,3c-1.4,1.1-2.8,2.1-4.2,3.2
		c-0.7,0.6-1.4,1.1-2.2,1.7c-0.2,0.2-0.6,0.3-1,0.4c-0.4-0.3-1-0.5-1.3-0.9c-1.8-2.4-3.6-4.8-5.4-7.2c-0.9-1.2-1.9-2.4-2.8-3.6
		c-1.9-2.5-3.8-5-5.7-7.5c-1.4-1.8-2.7-3.5-4.1-5.3c-1.4-1.9-2.9-3.7-4.3-5.6c-0.3-0.4-0.7-0.8-1.1-1.3c-0.7-0.9-0.6-1.7,0.2-2.4
		c2-1.6,4.1-3.2,6.2-4.7c1.3-1,2.6-2,3.9-3c1-0.8,1.2-0.8,2.1,0.2c1.2,1.5,2.3,3,3.5,4.5c0.9,1.2,1.9,2.4,2.8,3.6
		c1.6,2.1,3.1,4.1,4.7,6.2c2.2,2.8,4.4,5.6,6.5,8.4c1.9,2.5,3.7,5,5.6,7.4c0.1,0.2,0.3,0.4,0.5,0.5
		C127.4,124.4,127.5,124.8,126.5,125.6z"/>
	<path fill="#ffffff" d="M148.5,55.8c-0.4-3-0.3-6-1.4-8.8c-0.1-0.4-0.1-0.8-0.2-1.2c-0.5-1.8-1-3.5-1.5-5.3c0-0.1-0.1-0.2-0.2-0.3
		c-0.6-1.5-1.3-3-1.9-4.5c-0.6-1.3-1.2-2.7-1.9-4c-0.6-1.1-1.2-2.1-1.9-3.2c-1.4-2.2-2.8-4.4-4.4-6.5c-1.3-1.7-2.8-3.4-4.4-4.9
		c-2.2-2.1-4.4-4.2-6.8-6c-2.1-1.6-4.2-3.1-6.6-4.2c-2.2-1-4.3-2.3-6.5-3.2c-2.4-1-5-1.6-7.5-2.4c-0.4-0.1-0.9-0.2-1.3-0.2
		c-1.4-0.2-2.9-0.4-4.3-0.6c-2.7-0.4-5.5-0.8-8.2-0.4c-2.7,0.4-5.4,0.7-8.1,1c-0.4,0.1-0.8,0.2-1.3,0.3c-1,0.3-1.9,0.5-2.9,0.8
		c-0.8,0.3-1.8,0.6-2.4,1.2c-0.7,0.6-1.4,1.6-1,2.6c0.4,1.2,0.9,2.4,2.4,2.5c0.4,0,0.9,0.1,1.3,0c1.4-0.3,2.9-0.7,4.3-1.1
		c0.7-0.2,1.4-0.3,2.1-0.4c1.2-0.2,2.4-0.3,3.6-0.4c1.5-0.2,3.1-0.3,4.8-0.5c2.8,0.3,5.7,0.7,8.6,1c0.5,0.1,1,0.1,1.4,0.3
		c1.9,0.6,3.8,1.3,5.8,1.9c1,0.4,2,0.8,3,1.2c1.2,0.5,2.4,1.1,3.5,1.7c1,0.6,2,1.2,3,1.9c2,1.4,4,2.8,5.8,4.4
		c2.6,2.3,5.1,4.8,7.1,7.6c1.5,2.1,3,4.3,4.4,6.5c0.7,1.1,1.3,2.2,1.9,3.3c0.6,1.1,1.1,2.3,1.6,3.5c0.6,1.6,1,3.3,1.7,4.8
		c1,2.3,1.2,4.8,1.9,7.2c0.4,1.3,0.3,2.8,0.4,4.2c0.4,3.6,0.4,7.1,0,10.7c-0.1,1.4-0.2,2.9-0.4,4.3c-0.2,1.1-0.7,2.2-0.9,3.4
		c-0.2,1.4-0.5,2.6-1.1,3.9c-0.6,1.5-0.3,2.7,0.9,3.7c1.6,1.3,4.2,0.8,4.9-1c1-2.6,1.6-5.3,2.2-8c0.5-2.6,0.7-5.2,0.9-7.8
		c0.2-1.8,0.2-3.7,0.2-5.5C148.9,58.3,148.7,57.1,148.5,55.8z"/>
	<path fill="#ffffff" d="M117.2,70.5c0.9,0.6,1.8,0.6,2.7,0.1c1.3-0.7,1.9-1.9,2-3.2c0.4-3.5,0.6-7.1-0.2-10.6c-0.5-2.1-0.6-4.3-1.6-6.4
		c-0.7-1.4-1-3.1-1.7-4.4c-1.2-2.2-2.4-4.3-3.9-6.3c-3-3.9-6.5-7.3-11-9.5c-0.9-0.4-1.8-0.8-2.7-1.3c-1.8-1.1-3.8-1.3-5.8-1.8
		c-1.5-0.4-3.2-0.3-4.5-0.4c-1.6,0.1-3,0.1-4.4,0.3c-1.1,0.2-2.1,0.6-3.2,1c-1.1,0.4-2.2,2.2-2,3.2c0.6,2.2,2.7,3.3,4.9,2.5
		c2.8-1.1,5.6-0.9,8.4-0.3c1.8,0.4,3.6,0.9,5.3,1.8c1.8,1,3.6,2.1,5.2,3.3c1.9,1.5,3.6,3.3,5,5.3c1,1.4,1.9,2.8,2.7,4.3
		c0.7,1.3,1.1,2.7,1.6,4.1c0.1,0.3,0.3,0.5,0.4,0.8c0.2,0.6,0.4,1.1,0.6,1.7c0.3,1.1,0.4,2.3,0.7,3.4c0.7,2.8,0.5,5.6,0,8.3
		C115.4,68.2,115.8,69.6,117.2,70.5z"/>
</symbol>
</svg>