<?xml version="1.0" encoding="utf-8"?>
<!-- Generator: Adobe Illustrator 19.1.0, SVG Export Plug-In . SVG Version: 6.00 Build 0)  -->
<svg version="1.1" id="Layer_1" xmlns="http://www.w3.org/2000/svg" xmlns:xlink="http://www.w3.org/1999/xlink" x="0px" y="0px"
	 viewBox="0 0 174 173.3" style="enable-background:new 0 0 174 173.3;" xml:space="preserve">
<g>
	<path d="M152.4,49.9c-3.5-1-5.1-2.9-6.1-6.1c-1.3-4-2.7-7.9-4.7-11.6C134.4,18.3,123,8.5,108.4,3.6C91.8-1.9,74.8-1.4,58.8,7.1
		C44.4,14.8,34,26.1,29.4,42c-1.4,4.8-3.9,7.5-8.7,8.6C10.6,52.9,5,60.7,1.8,69.4c-6.7,18.1,6.4,36.7,22.1,40.3
		c6.9,1.6,9.5-0.3,9.5-7.4c0-13.1,0-26.2,0-39.3c0-2.4,0.2-4.8,0.3-7.1C49,51.8,59.8,42.4,69,30.5c21.2,16.2,43.6,19.5,67.9,9
		c3.2,5.4,4.9,11.2,4.8,17.5c-0.1,14.9-0.2,29.8,0.1,44.6c0.2,8.4-1,16.3-4.3,24c-6.6,15.5-17.5,25.7-34.3,28
		c-2.7-2.8-5-5.5-7.6-7.8c-4.2-3.8-13.1-4.3-19.3,2.2c-5,5.2-4.5,14.8-0.8,19.6c5.4,6.9,18.2,9,24.7-1.6c2.7-4.4,5.9-5.7,10.2-6.9
		c9.1-2.5,17-6.9,23.2-14.2c7.5-8.8,12-18.9,14.2-30.1c0.6-2.9,1.6-4.7,4.7-5.5c5-1.3,9.3-4,12.8-7.8C181,84.6,174.6,56,152.4,49.9z
		 M25.9,103c-12.7-3.7-18-13-18.5-23.2C7,70.6,15.1,60.1,25.6,56.1C26.4,71.7,25.8,87,25.9,103z M131.3,34.2
		c-21.1,8.4-40.2,5-57.6-9.4c-1-0.8-2.1-1.6-3-2.5c-2.5-2.3-4.1-1.2-5.9,1.1c-3.6,4.7-7,9.6-11.3,13.6c-4,3.7-8.9,6.4-13.5,9.4
		c-1.1,0.7-2.8,0.5-5.1,0.9c6.5-21.8,20.7-34.7,41.5-39.2c20.7-4.4,43,2.5,57.1,24.1C132.9,32.9,132.2,33.9,131.3,34.2z M87.5,166.7
		c-4.1,0.1-8.3-4.5-8.2-8.7c0.1-4.4,3.6-7.5,8.2-7.3c4.4,0.1,8,3.6,7.9,7.8C95.5,162.2,91.2,166.6,87.5,166.7z M149.6,103
		c0-15.7,0-30.8,0-46.1c10,2.1,16.5,9.6,17.3,20.8C167.6,87.5,163.2,98.3,149.6,103z"/>
	<path d="M97.7,118.9c7-2.4,12-7.2,15.1-14.1c1.1-2.4-0.2-4-1.9-5c-2-1.2-3.3,0.4-4.4,1.8c-0.4,0.5-0.6,1.2-0.8,1.8
		c-5.1,11.6-25.2,14.4-35,2.7c-1.2-1.5-1.7-3.6-2.9-5.1c-0.7-0.8-2.6-1.6-3.3-1.3c-1.2,0.6-2.4,2.2-2.5,3.4
		c-0.1,1.4,0.8,2.9,1.5,4.2c5.2,9.3,13.7,12.7,24.8,13.2C90.8,120.2,94.4,120.1,97.7,118.9z"/>
	<path d="M67.3,78.9c3.6,0.1,7-3.3,7-7.3c0.1-4-3.1-7.3-7-7.2c-3.6,0.1-6.7,3.1-6.8,6.8C60.3,74.9,63.8,78.8,67.3,78.9z"/>
	<path d="M107.6,78.9c3.7-0.1,6.8-3.6,6.8-7.6c-0.1-3.7-3-6.7-6.6-6.9c-3.8-0.1-7.2,3.2-7.2,7.1C100.6,75.3,104.1,79,107.6,78.9z"/>
</g>
</svg>
