<?xml version="1.0" encoding="utf-8"?>
<!-- Generator: Adobe Illustrator 19.1.0, SVG Export Plug-In . SVG Version: 6.00 Build 0)  -->
<svg version="1.1" id="Layer_1" xmlns="http://www.w3.org/2000/svg" xmlns:xlink="http://www.w3.org/1999/xlink" x="0px" y="0px"
	 viewBox="-276 20 240 512" style="enable-background:new -276 20 240 512;" xml:space="preserve">
<style type="text/css">
	.st0{fill:#FFFFFF;}
</style>
<path class="st0" d="M-38.4,22.9c-1.7-1.8-4.1-2.9-6.6-2.9h-222.1c-2.5,0-4.9,1-6.6,2.9c-1.7,1.8-2.5,4.3-2.4,6.8l10.4,135.4
	c0.4,4.9,4.7,8.6,9.6,8.2c4.9-0.4,8.6-4.7,8.2-9.6l-6.6-86.4H-109c4.9,0,8.9-4,8.9-8.9s-4-8.9-8.9-8.9h-146.8l-1.7-21.5h202.8
	l-1.7,21.5h-24.2c-4.9,0-8.9,4-8.9,8.9s4,8.9,8.9,8.9h22.8L-79.2,359h-28.6c-4.9,0-8.9,4-8.9,8.9s4,8.9,8.9,8.9H-80
	c-1.4,16.1-15,28.8-31.4,28.8h-89.2c-16.5,0-30-12.7-31.4-28.8h96.3c4.9,0,8.9-4,8.9-8.9s-4-8.9-8.9-8.9h-97l-11.7-152.1
	c-0.4-4.9-4.7-8.6-9.6-8.2c-4.9,0.4-8.6,4.7-8.2,9.6l12.3,165.8c0,24.3,17.7,44.6,40.9,48.7l14.1,101.5c0.6,4.4,4.4,7.7,8.8,7.7
	h60.4c4.5,0,8.2-3.3,8.8-7.7l14.1-101.5c23.2-4.1,40.9-24.3,40.9-48.7l26-344.5C-35.8,27.1-36.7,24.7-38.4,22.9z M-133.6,514.1
	h-44.8l-12.6-90.6h70L-133.6,514.1z"/>
</svg>
