<?xml version="1.0" encoding="utf-8"?>
<!-- Generator: Adobe Illustrator 19.1.0, SVG Export Plug-In . SVG Version: 6.00 Build 0)  -->
<svg version="1.1" id="Layer_1" xmlns="http://www.w3.org/2000/svg" xmlns:xlink="http://www.w3.org/1999/xlink" x="0px" y="0px"
	 viewBox="0 0 498.3 512" style="enable-background:new 0 0 498.3 512;" xml:space="preserve">
<style type="text/css">
	.st0{fill:#4693CF;}
</style>
<path class="st0" d="M469.9,300.2c-15.8,0-28.4,12.6-28.4,28.4v125.4H57.9V328.7c0-15.8-12.6-28.4-28.4-28.4S0,312.9,0,328.7v154.9
	C0,499.4,13.7,512,29.5,512h440.4c15.8,0,28.4-12.6,28.4-28.4V328.7C498.3,312.9,485.7,300.2,469.9,300.2z"/>
<path class="st0" d="M229.7,364.5c5.3,5.3,12.6,8.4,20,8.4c7.4,0,14.7-3.2,20-8.4l115.9-115.9c11.6-11.6,11.6-28.4,0-40
	c-11.6-11.6-29.5-11.6-41.1,0L278.1,275V28.4c0-15.8-12.6-28.4-28.4-28.4c-15.8,0-28.4,12.6-28.4,28.4V275l-67.4-66.4
	c-11.6-11.6-28.4-11.6-40,0c-11.6,11.6-11.6,28.4,0,40L229.7,364.5z"/>
</svg>
