<?xml version="1.0" encoding="utf-8"?>
<!-- Generator: Adobe Illustrator 19.1.0, SVG Export Plug-In . SVG Version: 6.00 Build 0)  -->
<svg version="1.1" id="Layer_1" xmlns="http://www.w3.org/2000/svg" xmlns:xlink="http://www.w3.org/1999/xlink" x="0px" y="0px"
	 viewBox="0 0 134.8 138.7" style="enable-background:new 0 0 134.8 138.7;" xml:space="preserve">
<path d="M90.8,48.4c9,0,17.2-0.2,25.3,0c9.1,0.2,15,7.6,13.1,16.2c-0.4,1.9-1.3,3.8-1.9,5.7c10.7,6.8,10.2,21.2-2.6,26.5
	c1.8,3.9,2.5,8,1.1,12.3c-1.3,4.2-4.5,6.7-8.5,8.4c0.4,2,1,3.8,1.2,5.6c0.9,8.3-4.6,14.6-12.9,14.8c-11.2,0.3-22.4,0.8-33.6,0.7
	c-13.7,0-26.7-3.6-37.9-11.6c-5-3.5-10.2-5.1-16-5.8c-4.4-0.5-8.9-1-13.4-1.1c-3.3-0.1-4.8-1.4-4.8-4.7c0-16.4,0-32.8,0-49.3
	c0-3.1,1.4-4.9,4.2-5.8c5.7-1.8,11.3-3.8,17-5.5c12.5-3.8,24.8-8,35.5-15.9c8.7-6.5,15.9-14,18.8-24.9c0.9-3.2,2.3-6.3,3.5-9.4
	c1.3-3.5,3.8-4.8,7.4-4.7c6.7,0.1,13,5.3,14.1,12.1c1.5,9,1.3,17.8-4,25.9C94.5,41,92.9,44.4,90.8,48.4z M82.1,71.9
	c-0.8-0.4-1.1-0.5-1.1-0.5c-1,1.3-2,2.5-2.8,3.9c-4.4,7.4-10.6,12.4-19.1,14.4c-1.8,0.4-4,0.7-4.6-1.8c-0.6-2.2,0.7-3.4,2.9-3.9
	c12.2-3.2,17.4-12.5,20.3-23.7c0.5-2,0.8-4.1,1.8-5.8c3.6-6.3,7.1-12.7,11.2-18.6c4.5-6.5,4.8-13.6,4.1-20.9C94.4,9.4,91.7,7,85,6.1
	c-1.5,3.8-3.3,7.7-4.4,11.8c-2.5,9-8,16-15.1,21.6c-5.7,4.5-11.6,8.8-18.1,12c-7.8,3.8-16.3,6.3-24.5,9.2
	c-5.4,1.9-10.9,3.5-16.2,5.2c0,16.5,0,32.2,0,48.1c4.4,0.5,8.4,0.9,12.5,1.5c6.3,0.8,12.1,2.3,17.6,6.1c5.9,4,12.9,6.6,19.7,9
	c6.9,2.4,14.2,2.4,21.5,1.5c-2-7.3-2-13.7,4.3-18.7c-3.6-6.6-3.7-12.8,1.2-18.9C75.5,87.4,77,79.7,82.1,71.9z M106.3,76
	c-5,0-10.1-0.1-15.1,0c-4.6,0.2-7.1,2.7-7.3,6.8c-0.2,4.2,2.6,7.5,7.1,7.6c10.2,0.2,20.5,0.3,30.7,0c4.8-0.1,6.9-3,6.7-7.8
	c-0.2-4.4-2.2-6.5-7.2-6.6C116.4,75.8,111.3,76,106.3,76z M103.9,54.6c-4.5,0-8.9-0.2-13.4,0.1c-4.8,0.3-6.8,2.8-6.7,7.8
	c0,3.9,2.3,6.4,6.8,6.5c8.5,0.2,17.1,0.2,25.6,0c5-0.2,7.1-2.7,7-7.4c-0.1-4.4-2.2-6.6-7-6.8C112.1,54.4,108,54.6,103.9,54.6z
	 M102.5,111.4c0,0.1,0,0.2,0,0.4c3.7,0,7.5,0.2,11.2-0.1c4.2-0.3,6.9-3.5,6.8-7.4c-0.1-4.2-2.6-6.8-7.1-6.9
	c-6.9-0.1-13.8-0.1-20.7,0c-4.9,0.1-6.8,2.2-6.9,6.8c0,4.8,1.8,6.9,6.6,7.1C95.8,111.6,99.2,111.4,102.5,111.4z M97.3,117.8
	C97.3,117.7,97.3,117.7,97.3,117.8c-2.4-0.1-4.8-0.1-7.2-0.1c-4.8,0.1-7.3,2.5-7.3,7c0,4.5,2.5,7.2,7.2,7.3c5.4,0.1,10.8,0,16.1-0.2
	c3.9-0.2,6.4-3,6.4-7c0-4-2.3-6.8-6.3-7C103.2,117.6,100.3,117.8,97.3,117.8z"/>
</svg>
