<?xml version="1.0" encoding="utf-8"?>
<!-- Generator: Adobe Illustrator 19.1.0, SVG Export Plug-In . SVG Version: 6.00 Build 0)  -->
<svg version="1.1" id="Layer_1" xmlns="http://www.w3.org/2000/svg" xmlns:xlink="http://www.w3.org/1999/xlink" x="0px" y="0px"
	 viewBox="-223 66.2 512 429.6" style="enable-background:new -223 66.2 512 429.6;" xml:space="preserve">
<style type="text/css">
	.st0{fill:#FFFFFF;}
</style>
<path class="st0" d="M264.3,337.8V321c0-53.2-18.5-105.1-52.1-146.2c-12-14.7-25.8-27.8-40.9-39.1v-1.8c0-4.9-4-8.8-8.8-8.8
	c-1.7,0-3.3,0.5-4.6,1.3c-21.2-13.6-44.5-23.7-68.9-29.8V75c0-4.9-4-8.8-8.8-8.8h-94.2c-4.9,0-8.8,4-8.8,8.8v21.5
	c-24.5,6.1-47.8,16.2-69,29.8c-1.3-0.8-2.9-1.3-4.6-1.3c-4.9,0-8.8,4-8.8,8.8v1.8c-15.1,11.3-28.9,24.4-40.9,39.1
	c-33.6,41.1-52.1,93-52.1,146.2v16.8c-14.2,3.4-24.7,16.2-24.7,31.4c0,17.8,14.5,32.4,32.4,32.4h27.4c4,19.7,21.1,39.2,48.4,54.7
	c29.2,16.6,65.8,26.2,103.8,27.5v3.1c0,4.9,4,8.8,8.8,8.8h70.6c4.9,0,8.8-4,8.8-8.8v-3.1c38-1.3,74.5-11,103.8-27.5
	c27.2-15.5,44.4-35,48.4-54.7h27.4c17.8,0,32.4-14.5,32.4-32.4C289,354.1,278.4,341.3,264.3,337.8z M-5.3,83.9h76.5v167.7
	c0,5.9-15.3,14.7-38.3,14.7s-38.3-8.9-38.3-14.7L-5.3,83.9L-5.3,83.9z M-180.6,321c0-63.9,28.9-122.9,75.3-162.6v116.7
	c0,4.9,4,8.8,8.8,8.8c4.9,0,8.8-4,8.8-8.8V144.9c19.4-13.4,41.2-23.7,64.7-30.1v136.8c0,18.5,24,32.4,55.9,32.4s55.9-13.9,55.9-32.4
	V114.8c23.5,6.4,45.3,16.7,64.7,30.1v130.3c0,4.9,4,8.8,8.8,8.8s8.8-4,8.8-8.8V158.4c46.4,39.7,75.3,98.7,75.3,162.6v15.8
	c-45.8-0.7-72.2-6-100.1-11.5c-29.4-5.9-59.7-11.9-113.5-11.9s-84.2,6.1-113.5,11.9c-27.9,5.6-54.3,10.9-100.1,11.5L-180.6,321
	L-180.6,321z M-11.1,466.2c-34.6-1.3-68.8-10.3-95-25.2c-20.6-11.7-34.5-25.9-38.8-39.3h18.1c4.7,10.8,17.9,21.4,37.8,30.1
	c22.6,9.9,50,15.8,78,16.8V466.2z M-11.1,428.1v2.7c-25.4-1-50.8-6.5-70.9-15.3c-11.2-4.9-18.5-9.8-23-13.9H6.5v17.7h-8.8
	C-7.2,419.3-11.1,423.3-11.1,428.1z M59.5,478.1h-53V437h53V478.1z M24.2,419.3v-17.7h17.7v17.7H24.2z M68.3,419.3h-8.8v-17.7H171
	c-4.5,4.1-11.9,9.1-23,13.9c-20.1,8.8-45.5,14.2-70.9,15.3v-2.7C77.1,423.3,73.2,419.3,68.3,419.3z M172.2,441
	c-26.2,14.9-60.4,23.9-95,25.2v-17.6c28-1,55.4-6.9,78-16.8c19.8-8.7,33-19.3,37.8-30.1H211C206.7,415.1,192.8,429.2,172.2,441z
	 M256.6,384h-447.3c-8.1,0-14.7-6.6-14.7-14.7s6.6-14.7,14.7-14.7c0.4,0,0.7,0,1.1,0c0,0,0.1,0,0.1,0c0,0,0.1,0,0.1,0
	c53-0.1,83.2-6.1,112.3-11.9c29.8-6,58-11.6,110.1-11.6s80.3,5.6,110.1,11.6c29.1,5.8,59.2,11.8,112.3,11.9c0,0,0.1,0,0.1,0
	c0,0,0.1,0,0.1,0c0.4,0,0.7,0,1.1,0c8.1,0,14.7,6.6,14.7,14.7C271.3,377.4,264.7,384,256.6,384z"/>
</svg>
