<?xml version="1.0" encoding="utf-8"?>
<!-- Generator: Adobe Illustrator 19.1.0, SVG Export Plug-In . SVG Version: 6.00 Build 0)  -->
<svg version="1.1" id="Layer_1" xmlns="http://www.w3.org/2000/svg" xmlns:xlink="http://www.w3.org/1999/xlink" x="0px" y="0px"
	 viewBox="0 0 168.8 163.9" style="enable-background:new 0 0 168.8 163.9;" xml:space="preserve">
<path d="M84,163.9c-25.4,0-50.8,0-76.2,0c-7.5,0-7.7-0.3-7.7-7.6C0.1,126.1,0.2,96,0,65.8c0-4.3,1.3-6.9,4.8-9.5
	C29.4,38.6,53.9,20.6,78.3,2.5c4.3-3.2,7.4-3.4,11.9-0.1c24.3,18.2,48.8,36.1,73.4,53.8c3.7,2.7,5.2,5.5,5.2,10.1
	c-0.2,29.7-0.1,59.4-0.1,89.1c0,7.9-0.5,8.4-8.5,8.4C134.7,163.9,109.3,163.9,84,163.9z M8.7,62.4c19.5,14.7,38,28.7,56.5,42.8
	c5.4-4.4,10.2-8.1,14.8-12.1c3-2.6,5.4-2.5,8.3,0c4.8,4.1,9.7,8,14.8,12.2c18.9-14.4,37.4-28.4,56.6-42.9c-1.3-0.8-1.8-1.2-2.4-1.6
	c-23.2-17-46.4-34-69.5-51.2c-3-2.2-5-1.6-7.7,0.4c-11.4,8.6-23,16.9-34.5,25.4C33.6,44.1,21.6,53,8.7,62.4z M14.3,156.1
	c47.3,0,92.8,0,139.9,0c-24-19.7-46.9-38.4-69.9-57.3C61.1,117.8,38.2,136.5,14.3,156.1z M161.1,70.2
	c-17.8,13.5-34.8,26.4-52.3,39.6c17.6,14.4,34.5,28.3,52.3,42.8C161.1,124.9,161.1,98.3,161.1,70.2z M7.2,70.2c0,28,0,54.6,0,82.6
	c17.9-14.6,34.9-28.5,52.4-42.9C42,96.5,25.1,83.7,7.2,70.2z"/>
</svg>
