<?xml version="1.0" encoding="utf-8"?>
<!-- Generator: Adobe Illustrator 19.1.0, SVG Export Plug-In . SVG Version: 6.00 Build 0)  -->
<svg version="1.1" id="Layer_1" xmlns="http://www.w3.org/2000/svg" xmlns:xlink="http://www.w3.org/1999/xlink" x="0px" y="0px"
	 viewBox="0 0 458.4 512" style="enable-background:new 0 0 458.4 512;" xml:space="preserve">
<style type="text/css">
	.st0{fill:#F40808;}
</style>
<path class="st0" d="M446.5,235.5c19-24.3,14.7-59.5-9.5-78.6c-11.7-9.2-26.4-13.3-41.2-11.4c-6.8,0.8-13.2,2.8-19.1,5.9
	C365.4,66,292.1,0,203.8,0C107.6,0,29.4,78.3,29.4,174.4v191.5C13,367.2,0,381,0,397.8V480c0,17.6,14.3,32,32,32h343.7
	c17.6,0,32-14.3,32-32v-82.2c0-16.8-13-30.6-29.5-31.9l-0.4-43.2c4.2-4.7,8.4-10.1,11.3-13.9L446.5,235.5z M386.3,397.8V480
	c0,5.9-4.8,10.7-10.7,10.7H31.9c-5.9,0-10.7-4.8-10.7-10.7v-82.2c0-5.9,4.8-10.7,10.7-10.7h38.6v58.5c0,5.9,4.8,10.7,10.7,10.7
	c5.9,0,10.7-4.8,10.7-10.6v-58.5h14.7v39.5c0,5.9,4.8,10.7,10.7,10.7c5.9,0,10.7-4.8,10.7-10.6v-39.5h239.7h0.1h8
	C381.5,387.1,386.3,391.9,386.3,397.8z M372.2,295.7c-3.2,4.1-8.4,10.9-12.7,15.2c-0.5,0.5-1,1.1-1.4,1.7c0,0,0,0,0,0.1
	c-0.2,0.3-0.3,0.5-0.5,0.8c-0.1,0.1-0.1,0.2-0.2,0.3c-0.1,0.2-0.2,0.4-0.3,0.6c-0.1,0.1-0.1,0.3-0.2,0.4c-0.1,0.2-0.1,0.4-0.2,0.5
	c-0.1,0.2-0.1,0.4-0.2,0.7c0,0.1-0.1,0.2-0.1,0.3c-0.1,0.7-0.2,1.4-0.2,2.1l0.4,47.2H50.5V174.2C50.7,90,119.4,21.3,203.8,21.3
	c82.5,0,149.9,65.6,153,147.3l-54.2,69.2c-3.6,4.6-2.8,11.3,1.8,15c4.6,3.6,11.3,2.8,15-1.8l55.9-71.4c0.7-0.9,1.5-1.8,2.2-2.6h0.7
	v-0.7c5.4-5.3,12.4-8.7,20.1-9.7c9.3-1.1,18.3,1.4,25.5,7.1c15,11.8,17.7,33.6,5.9,48.6L372.2,295.7z"/>
</svg>
