<?xml version="1.0" encoding="utf-8"?>
<!-- Generator: Adobe Illustrator 19.1.0, SVG Export Plug-In . SVG Version: 6.00 Build 0)  -->
<svg version="1.1" id="Layer_1" xmlns="http://www.w3.org/2000/svg" xmlns:xlink="http://www.w3.org/1999/xlink" x="0px" y="0px"
	 viewBox="0 0 137.7 139.4" style="enable-background:new 0 0 137.7 139.4;" xml:space="preserve">
<style type="text/css">
	.st0{fill:#595959;}
</style>
<g>
	<path class="st0" d="M137,93c-1.6-4.2-6.1-6.7-11.3-5.8c-2,0.3-3.8,0.7-5.2-1.3c-2.8-3.9-6.7-4.1-11-3c-2.2,0.6-4.3,1.7-6.6,0
		c-2.9-2.1-6-1.5-9.2-0.4c-7.4,2.7-14,6.8-20.8,10.6c-3.4,1.9-6.2,1.7-9.4,0.2c-7.8-3.6-14.1-9.4-21.1-14.3c-4.5-3.2-9.2-4.4-14.6-3
		c-8.6,2.2-16.6,6.2-24.8,9.5c-2.1,0.9-4,2.2-2.8,4.8c1.2,2.7,3.4,1.9,5.5,1.1c5.4-2.2,10.9-4.2,16.3-6.6c7.2-3.2,13.9-3.6,20.2,2.2
		c11.7,10.7,25.2,17,41.5,15.8c1.3-0.1,3.3-0.3,3.7,1.4c0.4,1.7-1.6,2.1-2.8,2.7c-9.9,4.5-19.9,4.8-29.9,0.7c-3.3-1.3-6.4-3-9.7-4.4
		c-2-0.9-4.4-1.4-5.7,0.9c-1.4,2.5,0.7,3.9,2.5,5c1.7,1,3.5,1.7,5.2,2.6c13.5,6.6,27.2,7.2,41.1,1c7-3.1,8.9-9.4,4.3-14.4
		c-2.2-2.3-5.1-2-8-3.9c3.6-1.8,7.2-3.6,10.8-5.3c1.4-0.7,3.2-1.3,4.1,0.8c1.9,4.6,4.6,4.1,7.9,1.4c1.1-0.9,2.5-1.5,3.8-1.9
		c2.5-0.8,4-0.3,4.2,2.8c0.4,5.6,1.8,6.2,6.9,3.4c0.9-0.5,1.8-1.2,2.8-1.5c1.9-0.7,4.1-1.2,5.3,0.8c1.5,2.5-1.2,3.3-2.7,4.3
		c-14.8,9.4-29.6,18.9-44.5,28.2c-8.2,5-16.9,7-26.5,4c-5.6-1.8-11.2-3.3-16.8-5c-8.5-2.7-17.2-4.1-26.2-3.2c-2.4,0.2-5.1,0.7-5,3.6
		c0.1,3.1,2.8,3.2,5.2,2.9c6.8-0.8,13.4,0,20,2c6.6,2,13.3,3.9,19.9,5.9c9.6,2.9,19.1,2.8,27.9-2c17.5-9.5,33.8-20.8,50.5-31.4
		C137.3,100.8,138.7,97.2,137,93z"/>
	<path class="st0" d="M68.3,77.1c21.5,0,39.3-17.8,38.5-38.4C107.8,16.8,88.5,0.1,69.7,0c-22-0.2-39.3,16.4-39.4,38
		C30.1,59.4,47,77.1,68.3,77.1z M68.8,6.9c16-0.7,31.6,12.9,31.7,31.8c0.1,17.3-14.6,31.7-32,31.7c-17.2,0-32.1-14.9-31.8-32
		C36.9,21.1,51.1,6.1,68.8,6.9z"/>
	<path class="st0" d="M59.8,40.1c2.8,1.2,5.8,1.7,8.8,1.9c1.6,0.1,3.2,0.2,4.8,0.5c2.1,0.4,3.7,1.4,3.8,3.8c0.1,2.2-1.7,3-3.3,3.6
		c-3.2,1.2-6.3,0.6-9.4-0.3c-1.9-0.5-3.7-1.1-5.1-1.5c-2.5,0-4.3,0.4-4.5,2.7c-0.2,2.5,1.7,3.7,3.6,4c4.5,0.8,7.7,2.3,7.2,7.7
		c-0.2,1.6,1.2,2.6,2.7,2.8c1.6,0.1,3.1-0.7,3-2.3c-0.4-5.2,3.3-6.1,7-7.8c7.6-3.4,8.1-12.3,1.2-17c-2.7-1.8-5.7-2.9-9-2.9
		c-1.9,0-3.9,0.1-5.8-0.3c-2.2-0.5-5-1.5-4.9-4.1c0.1-2.8,2.8-3.8,5.4-4.2c3.8-0.5,7.4,0.4,10.9,1.8c2.5,1,5.1,1.6,6.1-1.7
		c0.9-3-1.5-3.9-3.9-4.5c-4.1-1-7.4-2.5-6.9-7.6c0.1-1.5-0.8-2.8-2.5-3c-1.9-0.2-3.4,1.1-3.3,2.8c0.3,4.6-2.4,6-6.1,7.2
		c-4.2,1.4-6.7,4.8-6.7,9.3C53,35.4,55.7,38.3,59.8,40.1z"/>
</g>
</svg>
