<?xml version="1.0" encoding="utf-8"?>
<!-- Generator: Adobe Illustrator 19.1.0, SVG Export Plug-In . SVG Version: 6.00 Build 0)  -->
<svg version="1.1" id="Layer_1" xmlns="http://www.w3.org/2000/svg" xmlns:xlink="http://www.w3.org/1999/xlink" x="0px" y="0px"
	 viewBox="0 0 212.4 192.2" style="enable-background:new 0 0 212.4 192.2;" xml:space="preserve">
<path d="M77.2,175.3c-10.2-1.5-16.9-7-18.9-17.4c-3.7-1.1-7.8-1.7-11.2-3.5c-4.2-2.3-7.6-5.8-8.2-11.3c-0.3-3.2-2.1-5-5.7-5.7
	c-13.3-2.7-18.6-17-10.5-27.9c0.8-1,1.6-2,2.7-3.3c-4-4.3-7.7-8.4-11.5-12.3C-0.6,79.3-3.3,62.2,3.7,43.5
	C11.3,23.3,25.8,9.2,46.3,2.8c17.9-5.6,35.1-2.9,49.4,10.8c1.9,1.8,3.9,3.6,6.2,5.8c2.2-2,4.2-3.8,6.1-5.6
	c11.1-11,24.5-14.7,39.8-13.5c28,2.1,44.5,19.5,57.6,42c3.5,6,5.2,12.4,6.4,19c2.7,16-2.5,29.6-14,40.9c-3.2,3.2-6.4,6.3-9.3,9.3
	c0.7,2.4,1.5,4.2,1.7,6c1.7,11.1,0.3,17.5-11.4,22.7c-2,0.9-4.1,2.7-5,4.6c-4.7,10.4-7.3,12.5-19.6,14.5
	c-2.3,5.7-4.6,11.7-11.5,14.2c-6.6,2.4-12.6,0.3-18.1-2c-5.6,5.6-10.7,10.9-16,15.9c-8.3,7.8-19,6.9-25.7-2.2
	C80.6,182.4,79.3,179.1,77.2,175.3z M94.9,26.6C82,7.9,62.6,5,44.8,12.4c-15.6,6.5-27,18.2-33.2,34.2c-3.7,9.5-4.1,19.7-0.1,29.2
	c4.1,9.8,12.2,16.6,20.8,24c2.9-2.9,5.5-5.6,8.1-8.1c6.2-5.9,13.5-7.2,20.7-2.8c3.6,2.2,6.2,6.1,9.9,9.9c7.7-5.6,16.2-6.6,24,1.1
	c6.2,6.2,7.1,13.6,3.7,20.3c4.1,3.9,8,7.1,11.2,10.8c4,4.6,2,10.2,1.6,14.2c4.3,4.5,8,8.3,11.7,12c2.5,2.4,5,5,7.9,6.8
	c1.8,1.1,4.6,1.4,6.6,0.8c5.7-1.9,7.2-7.9,3.1-13.2c-3.8-4.9-8.2-9.3-12.4-13.8c-3.1-3.3-6.2-6.7-9.5-9.7c-2.2-2-2.6-4.3-0.9-6.4
	c2.2-2.6,4.7-2,6.9,0.4c0.9,1,1.9,1.9,2.8,2.8c5.4,5.5,10.8,11.1,16.3,16.6c2.1,2.1,4.2,4.2,6.7,5.7c4.4,2.7,10.6,1.5,13.1-2.1
	c2.3-3.3,1.9-5.9-2.4-10.5c-7-7.4-14.1-14.7-21.2-22c-1.3-1.4-3-2.7-3.5-4.3c-0.5-1.5-0.2-4,0.8-5c0.9-0.8,3.7-0.9,4.8,0
	c3,2.2,5.6,4.9,8.2,7.5c6.4,6.4,12.6,13,19.1,19.3c4.1,3.9,7.4,3.2,10.5-1.5c3.3-5,2.9-8.2-2.2-13.6C166.8,102.9,155.4,91,144,79
	c-5.2-5.5-10.4-11.1-15.9-17c2-2.1,3.4-3.6,5.3-5.6c2.7,2.4,5.2,4.3,7.4,6.6c6.9,7.2,13.5,14.6,20.5,21.8
	c6.6,6.8,13.5,13.4,21.3,21.2c3.6-4.1,6.9-7.9,10.3-11.7c10.3-11.2,14.2-23.9,8.7-38.6c-2-5.2-4-10.7-7.1-15.2
	c-10.1-14.9-22.2-27.5-41-31.1c-15.2-2.9-28.8-0.3-40.1,11C103.1,31,92.7,41.4,82.3,51.8c-2.4,2.4-4.7,4.8-7.1,7.2
	c6.7,5.8,12.1,7,18.2,3.5c4.3-2.5,8.8-5.5,11.8-9.3c7.1-9,16.2-9.6,26.1-8c3.2,0.5,6.1,2,9.3,2.8c2.8,0.7,5.7,1.2,8.6,1.7
	c5.8,0.9,10.3-2.2,15.1-4.7c4.4-2.4,4.5-2.2,8.2,3.3c-2,1.8-3.8,4.2-6.2,5.6c-8.1,4.6-16.7,5.6-25.8,3.1c-4.6-1.3-9.3-2.4-14-3.7
	c-4.9-1.4-9-0.1-12.6,3.4c-2.9,2.8-5.7,5.7-8.6,8.3c-8.9,8.1-20.5,9.7-31.4,4.5c-8.3-3.9-9.9-11.6-3.7-18.4c2-2.2,4.3-4,6.3-6.1
	C82.8,38.9,88.9,32.7,94.9,26.6z M81.4,103.5c-0.4,0.2-2.4,0.9-3.8,2.2c-9.4,9-18.7,18.1-27.8,27.3c-3.8,3.9-3.6,9.6,0,13
	c3.2,3.1,8.6,3,12.4-0.7c9.2-9.1,18.3-18.5,27.4-27.7c2.2-2.2,4-4.9,2-7.8C89.6,106.8,87.8,103,81.4,103.5z M103.1,140.6
	c0.1-5.1-1.4-7.8-5-9.7c-3.9-2.1-7-0.6-9.5,1.8c-6.2,5.9-12.2,12-18,18.2c-3.9,4.1-3.7,8.7,0.4,12.6c4.2,4,7.1,4,11.7-0.4
	c6-5.7,11.8-11.5,17.5-17.5C101.7,144,102.5,141.6,103.1,140.6z M62.7,103.6c-2.1-2.5-3.7-5.4-6-7.2c-2.8-2.1-6.2-1.8-8.9,0.8
	c-6.1,5.9-12.2,11.7-18.1,17.9c-2.3,2.4-3.2,5.5-1.4,8.9c3,6,9.4,7.2,14.7,2.3c5.2-4.9,10.3-10,15.1-15.2
	C59.9,109.3,60.9,106.7,62.7,103.6z M117.3,164.1c-1.9-2.1-3.2-3.7-4.7-5.2c-3.6-3.8-6.8-4.6-10.5-1.5c-4.7,4-9,8.5-13.1,13.1
	c-2.1,2.3-1.6,7.7,0.2,9.8c2.9,3.4,7.7,5,10.8,2.5C106.8,177.6,113.3,172.1,117.3,164.1z"/>
</svg>
