<?xml version="1.0" encoding="utf-8"?>
<!-- Generator: Adobe Illustrator 19.1.0, SVG Export Plug-In . SVG Version: 6.00 Build 0)  -->
<svg version="1.1" id="Layer_1" xmlns="http://www.w3.org/2000/svg" xmlns:xlink="http://www.w3.org/1999/xlink" x="0px" y="0px"
	 viewBox="0 0 166.9 142.5" style="enable-background:new 0 0 166.9 142.5;" xml:space="preserve">
<style type="text/css">
	.st0{fill:#FBFBFB;}
</style>
<g>
	<path class="st0" d="M160.3,21.8c-4.6-3.7-9.6-7.1-15-9.5C125.8,3.5,104.8,1,81.9,0c-4.7,0.4-11.1,1-17.4,1.6
		C50.6,3,37.1,5.9,24.2,11c-6.8,2.7-13.3,6-18.3,11.5C1.4,27.2-1,32.6,0.4,39.3c0.9,4.5,1.2,9.2,1.8,13.7C2.9,58.7,6,64,14.4,62.8
		c9.1-1.3,18.3-2.5,27.4-4.1c5.5-0.9,8.6-5.7,7.6-11.2c-0.4-2.2-0.6-4.4-1.2-6.5c-2.5-8.5,0.4-7.6,5.8-9.6c0.8-0.3,1.7-0.3,2.6-0.5
		c18.3-4.3,36.6-4,54.9,0.2c1.9,0.4,3.8,1,5.7,1.7c2,0.8,3.1,2.3,2.5,4.7c-0.7,2.8-1.2,5.6-1.8,8.4c-1.5,7.5,1.5,11.9,9,13
		c1.3,0.2,2.6,0.4,3.9,0.6c7,1.1,13.9,2.3,20.9,3.2c8.2,1,11.6-1.5,13-9.4c0.9-5.2,1.4-10.5,2-15.7
		C167.5,31.2,165.2,25.7,160.3,21.8z M159.7,37.3c-0.8,5.2-1.7,10.4-2.4,15.7c-0.4,2.7-1.8,3.2-4.2,2.8c-8.3-1.3-16.5-2.5-24.8-3.8
		c-3.6-0.6-3.9-0.9-3.3-4.7c0.5-2.8,1.2-5.6,1.6-8.4c1-7-1.2-11.1-8.1-13.1c-6.1-1.8-12.4-3-18.7-4c-15.4-2.4-30.8-1.1-45.9,2.4
		c-0.6,0.1-1.3,0.2-2,0.3c-10.7,2.8-13.3,7-10.9,17.8c0.1,0.4,0.3,0.8,0.4,1.3c1.5,7.2,1.2,7.6-6.1,8.7c-7.2,1.1-14.3,2.3-21.5,3.5
		c-2.5,0.4-3.9-0.3-4.2-2.8c-0.8-5.9-1.8-11.8-2.2-17.7c-0.4-4.4,2.7-7.3,5.8-9.9c5.7-4.7,12.4-7.7,19.3-9.9
		c11.8-3.7,23.8-6.3,36.2-7.1c5.1-0.4,10.1-1,14.5-1.4c21.2,1.6,41.6,3.6,60.5,12.4c4.5,2.1,8.5,5.4,12.5,8.5
		C159,30.1,160.3,33.5,159.7,37.3z"/>
	<path class="st0" d="M139.2,70.8c-0.8-2.5-1.4-5.5-4.9-5.2c-2.5,0.2-3.2,3.1-1.9,7.3c2.1,6.9,4,14,6.6,20.7
		c3.6,9.3,4,18.9,3.6,28.6c-0.3,8.1-5.4,12.9-13.6,13.1c-2.4,0.1-4.9,0-7.3,0c-27.6,0-55.2-0.2-82.8,0.1c-9.8,0.1-14.5-7-14.6-14.3
		c-0.1-9.8,0.6-19.3,4.2-28.5c2.3-5.9,4-12.1,6-18.2c0.4-1.3,0.8-2.5,1.3-3.7c1-2.4-0.1-4-2-4.9c-2.4-1.2-3.6,0.7-4.6,2.5
		c-0.4,0.8-0.6,1.7-0.9,2.5c-2.9,8.8-5.9,17.5-8.8,26.3c-2.6,7.9-3,16-2.6,24.2c0.7,13.2,10.1,21.7,22.1,21.2
		c14.8-0.7,29.6-0.2,44.4-0.2c15.7,0,31.3,0.1,47,0c9.2-0.1,17.7-6.6,18.7-15.5c0.8-8,1.1-16.5-0.4-24.4
		C146.6,91.7,142.5,81.3,139.2,70.8z"/>
	<path class="st0" d="M59.8,98.2c4.6,0,7-2.3,7.1-6.8c0.1-4.8-1.8-6.6-6.8-6.7c-5.2-0.1-7.3,1.7-7.5,6.1
		C52.4,95.6,55,98.3,59.8,98.2z"/>
	<path class="st0" d="M76.3,114.2c0,4.6,2.2,6.8,6.8,6.8c5,0.1,7.6-2.3,7.5-6.9c0-4.8-2.2-6.7-7.6-6.6
		C78.2,107.6,76.3,109.5,76.3,114.2z"/>
	<path class="st0" d="M59.6,75.1c5.1,0.1,7.3-1.7,7.4-6.3c0.1-4.8-2.4-7.4-7.3-7.3c-4.6,0-7,2.4-7.1,6.9
		C52.5,72.9,54.7,75,59.6,75.1z"/>
	<path class="st0" d="M83.3,75.1c5.1,0.1,7.3-1.8,7.4-6.3c0.1-4.8-2.5-7.3-7.3-7.3c-4.6,0-7,2.3-7,6.9C76.3,73,78.3,75,83.3,75.1z"
		/>
	<path class="st0" d="M83.3,98.3c4.8,0.1,7.5-2.6,7.4-7.2c-0.1-4.5-2.2-6.3-7.4-6.3c-5.1,0-7,1.8-7,6.6
		C76.4,95.8,78.7,98.2,83.3,98.3z"/>
	<path class="st0" d="M59.8,107.5c-5.1,0-7.1,1.7-7.2,6.2c-0.1,4.7,2.4,7.2,7.2,7.3c4.9,0,7.3-2.4,7.2-7.2
		C66.9,109.4,64.8,107.5,59.8,107.5z"/>
	<path class="st0" d="M107.3,98.3c4.7,0,6.6-1.9,6.6-6.9c0-5.3-1.3-6.5-6.6-6.6c-5.4,0-7,1.4-7.1,6.3
		C100.1,96.1,102.2,98.3,107.3,98.3z"/>
	<path class="st0" d="M107.1,121c5,0,6.7-1.7,6.8-6.7c0.1-5.5-1.1-6.7-6.3-6.8c-5.6-0.1-7.4,1.6-7.4,6.7
		C100.2,118.9,102.3,121,107.1,121z"/>
	<path class="st0" d="M107.3,75.1c5.3,0,6.6-1.3,6.6-6.6c0-5-1.8-6.9-6.5-7c-5,0-7.3,2.2-7.1,7.2C100.3,73.6,101.9,75.1,107.3,75.1z
		"/>
</g>
</svg>
