<?xml version="1.0" encoding="utf-8"?>
<!-- Generator: Adobe Illustrator 19.1.0, SVG Export Plug-In . SVG Version: 6.00 Build 0)  -->
<svg version="1.1" id="Layer_1" xmlns="http://www.w3.org/2000/svg" xmlns:xlink="http://www.w3.org/1999/xlink" x="0px" y="0px"
	 viewBox="0 0 289.8 464.4" style="enable-background:new 0 0 289.8 464.4;" xml:space="preserve">
<style type="text/css">
	.st0{fill:#FB0808;}
</style>
<g>
	<path class="st0" d="M45.1,249.9c1.4,1.4,2.7,2.8,3.7,4.6c15.6,30.3,31.3,60.5,47.1,90.7c13.2,25.4,26.4,50.7,39.6,76.1
		c0.2,0.4,0.5,0.9,0.7,1.3c1.5,3.4,3.6,6.2,7.7,6c3.8-0.1,5.6-2.9,7.2-6c29.3-55.2,58.6-110.4,88-165.5c1.4-2.7,3.1-5,5.3-7.1
		c29.9-28.7,44.7-63.9,45.5-104.4C289.2,106.1,276.3,72,249,44.3c-36.5-37-81.1-51-132.3-41.4C44.9,16.3-8.1,84.1,1,162
		C5.1,196.5,20.1,225.8,45.1,249.9z M145.5,47.5c53.4,0.1,96.6,43.8,96.6,97.7c0.4,54.4-45.7,97.9-98.7,97.1
		c-52.8-0.8-95.9-44.1-95.9-98C47.6,90.6,91.3,47.4,145.5,47.5z"/>
	<path class="st0" d="M256.3,367.8c-7.6-6.8-16.4-11.9-25.7-16.1c-6.5-2.9-13-5.6-20.1-7.3c-4.4,7.6-8.6,14.9-13,22.6
		c5.4,1.8,10.1,3.2,14.8,5c7.5,2.8,14.7,6.3,20.6,12c8.4,8.1,8.4,17.1,0.2,25.3c-5.4,5.4-12.1,8.8-19.1,11.6
		c-15.4,6.2-31.6,9.2-48,10.6c-28.7,2.5-57.2,0.9-85-7.5c-9.3-2.8-18.1-6.6-25.7-12.9c-10.2-8.6-10.4-18.7-0.7-27.6
		c4.5-4.1,9.8-6.9,15.2-9.4c6-2.7,12.3-4.4,18.8-6.7c-4.6-7.8-8.9-15.2-13.3-22.6c-18.2,6-35,13.5-48.3,27.1
		c-16.7,17.1-16.8,38.2-0.3,55.5c9.9,10.5,22.1,17.6,35.5,22.6c47.1,17.9,95.1,18.9,143.6,6.5c18.2-4.6,35.3-12,49.7-24.4
		C278.4,412.5,278.6,387.8,256.3,367.8z"/>
	<path class="st0" d="M102.6,162.9c-1.9,10.5-3.8,20.9-5.6,31.4c-1.2,6.8-2.2,13.6-3.4,20.9c1.3-0.6,1.9-0.8,2.5-1.1
		c14.9-7.8,29.7-15.5,44.5-23.5c3.1-1.7,5.6-1.7,8.7,0.1c5.4,3.2,11.1,6,16.7,8.9c9.8,5.1,19.6,10.3,29.4,15.4
		c0.8-1.5,0.4-2.7,0.2-3.8c-2.8-16.2-5.5-32.4-8.4-48.7c-0.4-2.4-0.8-4.3,1.3-6.3c7.3-6.8,14.4-13.8,21.5-20.8
		c5.7-5.7,11.3-11.5,17.2-17.5c-1.1-0.3-1.8-0.6-2.6-0.7c-16.6-2.4-33.2-4.9-49.9-7.1c-3.3-0.4-4.8-1.9-6.1-4.7
		c-7.6-15.8-15.5-31.5-23.4-47.5c-1.5,1.4-2,3-2.7,4.4c-7.2,14.6-14.5,29.2-21.6,43.8c-1,2-2,3.6-4.6,3.8c-7.4,0.8-14.8,2-22.2,3.1
		c-10.3,1.5-20.7,3.1-32,4.8c1.8,1.9,2.9,3.1,4.1,4.3c11.3,11,22.6,22.1,34.1,33C102.6,157.4,103.2,159.7,102.6,162.9z"/>
</g>
</svg>
