<?xml version="1.0" encoding="utf-8"?>
<!-- Generator: Adobe Illustrator 19.1.0, SVG Export Plug-In . SVG Version: 6.00 Build 0)  -->
<svg version="1.1" id="Layer_1" xmlns="http://www.w3.org/2000/svg" xmlns:xlink="http://www.w3.org/1999/xlink" x="0px" y="0px"
	 viewBox="254.8 74.5 388.9 397.7" style="enable-background:new 254.8 74.5 388.9 397.7;" xml:space="preserve">
<style type="text/css">
	.st0{fill:#5C5C5C;}
</style>
<g>
	<path class="st0" d="M636.9,119.6c-1.3-4.3-3.8-8.3-4.3-12.6C631,93.6,622,87.3,610.7,83.7c-8-2.6-16.5-3.8-24.7-5.7
		c-23.4-5.6-46.4-4.1-69.6,2.2c-10.8,2.9-20.9,7.3-30.4,12.5c-7.8,4.2-14.4,10.8-20.9,16.9c-7.5,7-15,14.3-21.5,22.2
		c-10.7,12.9-21,26.2-30.7,39.8c-2.9,4.1-5.8,4.4-9.6,3.4c-3.2-0.8-6.3-2-9.6-2.9c-8.2-2.1-16.3-4.8-24.6-6
		c-22.4-3.2-44.2-1.6-64.2,10.2c-4.8,2.8-9.4,6.3-13.2,10.3c-4.3,4.5-8,9.9-11.4,15.2c-3.2,4.9-5.7,10.3-8.4,15.5
		c-5.2,9.9-8.3,20.4-9.9,31.5c-1.8,13.3-5,26.5-7.1,39.8c-1,6.6,3.6,10.7,10.5,10.3c20.3-1.2,40.6-2.4,60.8-3.6
		c3.6-0.2,7.2-0.7,10.8-1.1c0.3,0.6,0.6,1.2,0.8,1.8c-1.9,1.3-3.7,2.9-5.7,3.8c-2.9,1.2-6.2,1.5-9.1,2.7
		c-6.3,2.6-13.9,2.9-15.6,12.2c-1.3,7,0,13.6,3.9,18.3c6.8,8.3,15.4,15.2,23.1,22.8c4.6,4.6,8.9,9.6,13.6,14.1s9.8,8.5,14.6,12.9
		c1.9,1.8,3.3,4.1,5.2,5.9c4.8,4.5,9.9,8.5,14.5,13.2c6.4,6.6,12.1,13.6,20.9,17.4c6.7,2.9,19.7,1.7,22.3-9.2
		c1.5-6.3,2.9-12.5,4.2-18.8c0.6-2.7,1.2-5.5,4.9-4.9c3.8,0.6,2.1,3.5,2,5.6c-0.9,23.8-1.8,47.6-2.6,71.4c-0.2,5.4,4.4,9.5,9.7,8.8
		c6.4-0.9,12.8-2.2,19.1-3.7c11.6-2.8,23.1-5.7,34.5-8.9c4.1-1.1,8.1-2.9,12-4.8c7.1-3.5,14.7-6.5,20.9-11.2
		c8.2-6.3,15.3-13.8,21-22.9c10.3-16.2,13.3-33.9,12.4-52.4c-0.8-17.2-6-33.6-12.3-49.5c-2.1-5.3-0.9-8.4,3.2-11.5
		c6.7-5.1,13.4-10.3,19.8-15.7c5.1-4.3,9.8-9.1,14.8-13.6c4.7-4.3,9.8-8.2,14.2-12.8c4.3-4.4,7.7-9.7,12-14.2
		c9.6-10,14.9-22.3,20.3-34.7c4.8-11.1,6-22.8,7.2-34.5C645,160.7,643,139.9,636.9,119.6z M336.7,277.8c-15.4,1.4-30.9,2.6-47.4,3.9
		c-3,0.2-7.2,0.3-11.3,0.8c-4.3,0.5-5.8-1.2-5.5-5.3c1.1-13.1,4.3-25.7,8-38.4c2.5-8.4,5.7-16.2,9.8-23.9
		c4.5-8.6,10.5-15.5,18.4-21.4c15.8-11.7,33.5-14.9,52.1-12.8c11.4,1.3,22.5,5.3,33.8,8.3c3.6,0.9,4.3,2.8,1.9,6.2
		c-5,7.1-9.5,14.5-14.4,21.7c-5,7.4-10.2,14.5-15.2,21.9c-4,6-7.8,12.1-11.8,18.1c-4.2,6.3-8.5,12.6-13.1,18.6
		C340.9,276.9,338.6,277.7,336.7,277.8z M412.9,395.8c-0.4,1.3-1,2.5-1.4,3.7c-1.6,5.2-3.6,5.7-7.5,1.9c-8.9-8.5-17.9-17-26.6-25.7
		c-7.7-7.6-15-15.5-22.7-23c-4.2-4.1-9-7.6-13.2-11.6c-6-5.7-11.8-11.7-17.5-17.8c-0.6-0.6-0.2-2.9,0.5-3.8c1-1.2,2.6-2.3,4.1-2.8
		c8.2-2.7,16.2-6.2,24.6-7.4c3.4-0.5,8.1,3.6,11.3,6.6c9.1,8.4,17.6,17.4,26.4,26c8.7,8.4,17.6,16.7,26.3,25.1
		c1.3,1.3,2,3.3,2.8,4.7C417.5,380.2,415.2,388,412.9,395.8z M438.6,365.8c-4.5-4.1-8.5-8.6-12.9-12.8c-5.2-5.1-10.5-10.2-15.9-15.2
		c-5.2-4.8-10.6-9.3-15.6-14.2c-5.2-5-10.1-10.3-15.2-15.4c-6.9-6.8-13.8-13.7-21.1-20.2c-2.4-2.2-2.7-4.3-1.2-6.5
		c2-2.9,4.4-5.5,7-8.7c3.6,2.9,6.8,5,9.5,7.6c5.1,4.9,9.8,10.1,14.8,15c4.7,4.7,9.6,9.3,14.5,13.8c5.5,5.2,11.3,10.1,16.7,15.3
		c8.5,8.1,16.8,16.4,25.3,24.6c2.9,2.8,6,5.2,8.8,8.1c1.1,1.1,2.5,3.6,2.1,4c-3.1,3.2-6.2,6.7-10,8.8
		C444.3,370.6,440.7,367.7,438.6,365.8z M540.4,407.1c-3.4,5.8-6.6,11.9-11.1,16.7c-4.2,4.5-9.8,7.8-15.1,11
		c-8.7,5.2-17.8,9.4-27.9,11.4c-9.9,1.9-19.5,5.3-29.3,7.4c-6.8,1.4-7.7,0-7.4-6.9c0.7-18,1.5-35.9,1.7-53.9
		c0.1-6.6,3.7-10.2,8.6-13.4c1-0.6,2-1.2,2.9-1.9c9.4-7.1,18.8-14.2,28.3-21.3c12.4-9.3,24.8-18.4,37.1-27.7c2.3-1.8,3.4-5.7,7.5-4
		c1.1,0.5,2.5,1.3,2.8,2.3c3.1,10.6,6.2,21.3,8.8,32.1c1.2,4.8,1.2,9.9,1.7,14.8C549,385.5,546.5,396.8,540.4,407.1z M617.1,219.9
		c-4.7,9-9.8,17.9-17,25.2c-9.3,9.4-18.8,18.6-28.5,27.6c-8,7.4-16.2,14.5-24.7,21.3c-6.7,5.5-14,10.3-20.9,15.5
		c-5.4,4.1-10.4,8.5-15.8,12.6c-7.1,5.3-14.5,10.2-21.5,15.5c-4.9,3.6-9.5,7.5-14.1,11.5c-2.8,2.4-5.9,2-8.4-0.7
		c-4.7-5.1-9.7-9.8-14.6-14.6c-4.5-4.4-9.2-8.7-13.8-13.2c-4.6-4.5-9.1-9.1-13.8-13.5c-9.3-8.8-18.6-17.5-27.9-26.2
		c-6.3-5.9-12.6-11.8-19-17.7c-3.7-3.4-4-6-1.3-10c6.2-8.9,12.1-18,18.4-26.9c8-11.4,16.4-22.6,24.4-34c4.9-7,9.2-14.3,14.2-21.3
		c3.9-5.4,8.4-10.5,12.6-15.7c3.5-4.3,6.6-9,10.3-13.1c8.2-9,16.2-18.4,25.2-26.5c7.9-7.1,16.8-12.9,27.5-15.9
		c8.1-2.2,7.7-2.9,13.7,2.9c13.7,13.3,27.6,26.4,41.3,39.7c7.6,7.4,14.9,15.2,22.6,22.7c4.2,4.1,9,7.6,13.2,11.7
		c5,4.9,9.7,10.1,14.5,15.2c1,1,2.6,1.5,3.6,2.6c2.3,2.5,4.3,5.3,6.5,8C621.4,209.3,619.8,214.8,617.1,219.9z M628.2,172.3
		c-0.1,1.5-0.1,3.1-0.6,4.4c-0.4,1.1-1.4,2.2-2.4,2.8c-0.4,0.2-1.7-1.1-2.4-1.8c-4.4-4.1-8.9-8.2-13.2-12.4
		c-5.1-5.1-9.9-10.4-15.1-15.5c-4.3-4.2-8.9-8-13.4-12c-0.6-0.5-1.5-0.9-2-1.4c-4.3-4.6-8.4-9.5-13-14c-4.6-4.4-9.7-8.3-14.3-12.7
		c-5.2-4.9-10-10.2-14.9-15.3c0.1-0.5,0.3-1.1,0.4-1.6c2-0.4,4-1.2,6.1-1.2c12.8,0.2,25.7-0.1,38.4,1.3c7.9,0.9,15.5,4.4,23.3,6.8
		c0.5,0.1,0.9,0.6,1.4,0.6c7.5-0.2,9.7,5.8,11.6,11C625,131,629,151.3,628.2,172.3z"/>
	<path class="st0" d="M511.8,172.2c-21,0-38.2,14.5-38.7,38.3c-0.5,22.1,18.6,39.7,38.1,39c18.3,1.7,38-18.8,38.5-36.8
		C550.2,189.4,531.7,172.2,511.8,172.2z M510.8,233.3c-13-0.3-22.4-10.7-22.2-22.9c-0.2-12.2,11.5-22.9,23-22.5
		c12.8,0.5,22.3,11,22.3,23.6C533.9,223.8,523.3,233.6,510.8,233.3z"/>
	<path class="st0" d="M454.3,232.3c-19.8-0.8-39.3,16.7-39,38.6c-0.3,22,16.3,38.5,37.1,39c23.4,0.5,39.5-17.2,39.8-38
		C492.4,249.4,475.8,233.2,454.3,232.3z M475.7,271.7c0,12-10.8,23.4-22.3,23.1c-10.9-0.2-23.4-11.9-23.1-23.5
		c0.3-12.1,10.9-21.6,23.6-22.3C465.6,248.3,477.4,259.9,475.7,271.7z"/>
</g>
</svg>
